<svg xmlns="http://www.w3.org/2000/svg" viewBox="0 0 200 200"><linearGradient id="applemusic_svg__a" x1="100" y1="2.78" x2="100" y2="197.69" gradientTransform="matrix(1 0 0 -1 0 202)" gradientUnits="userSpaceOnUse"><stop offset="0" stop-color="#fa233b"></stop><stop offset="1" stop-color="#fb5c74"></stop></linearGradient><g data-name="Layer 2"><path d="M200 62.56v-7.17c0-2 0-4-.09-6a87.63 87.63 0 0 0-1.16-13.13 44.22 44.22 0 0 0-4.11-12.5 42.07 42.07 0 0 0-18.38-18.39 44.41 44.41 0 0 0-12.48-4.11A87.88 87.88 0 0 0 150.64.1c-2-.06-4-.08-6-.09H55.39c-2 0-4 0-6 .09a87.88 87.88 0 0 0-13.17 1.16 44 44 0 0 0-12.48 4.12A42.07 42.07 0 0 0 5.37 23.74a44.16 44.16 0 0 0-4.11 12.49A87.88 87.88 0 0 0 .1 49.37c-.06 2-.08 4-.09 6Q0 59 0 62.56v82.04c0 2 0 4 .09 6a87.76 87.76 0 0 0 1.16 13.14 44.16 44.16 0 0 0 4.11 12.49 42.07 42.07 0 0 0 18.37 18.36 44.43 44.43 0 0 0 12.48 4.12 86.56 86.56 0 0 0 13.14 1.15c2 .06 4 .08 6 .09h89.17c2 0 4 0 6-.09a86.34 86.34 0 0 0 13.14-1.15 44.18 44.18 0 0 0 12.49-4.12 42.12 42.12 0 0 0 18.36-18.36 44.18 44.18 0 0 0 4.12-12.49 86.56 86.56 0 0 0 1.15-13.14c.06-2 .08-4 .09-6V62.56Z" style="fill: url(&quot;#applemusic_svg__a&quot;); fill-rule: evenodd;"></path><path d="M141.39 30.56c-.48 0-4.78.8-5.3.91l-59.44 12a8.21 8.21 0 0 0-3.71 1.66 6.08 6.08 0 0 0-2 3.86 14 14 0 0 0-.13 2v74.4a7.19 7.19 0 0 1-1.32 4.86 6.76 6.76 0 0 1-4.34 2.22l-3.88.78a66.91 66.91 0 0 0-11 2.79 17.13 17.13 0 0 0-6.49 4.17 15.83 15.83 0 0 0 .79 22.33 14.93 14.93 0 0 0 7.22 3.7c3 .6 6.11.39 10.72-.54a22.06 22.06 0 0 0 6.95-2.56 17.43 17.43 0 0 0 5.47-5.07 18.29 18.29 0 0 0 2.91-6.86 34 34 0 0 0 .66-7.36V79.34c0-3.46 1-4.37 3.77-5 0 0 49.41-10 51.72-10.41 3.21-.62 4.73.3 4.73 3.67v44c0 1.74 0 3.51-1.21 5a6.73 6.73 0 0 1-4.33 2.21l-3.89.79a67.33 67.33 0 0 0-11 2.78 17.33 17.33 0 0 0-6.49 4.17 15.55 15.55 0 0 0 .79 22.33 15 15 0 0 0 7.22 3.67c3 .6 6.12.38 10.73-.54a22 22 0 0 0 6.94-2.53 17.4 17.4 0 0 0 5.47-5.06 18.35 18.35 0 0 0 2.91-6.86 34 34 0 0 0 .56-7.37V35.81c-.01-3.42-1.81-5.53-5.03-5.25Z" style="fill: rgb(255, 255, 255); fill-rule: evenodd;"></path></g></svg>