<svg enable-background="new 0 0 200 200" viewBox="0 0 200 200" xmlns="http://www.w3.org/2000/svg" xmlns:xlink="http://www.w3.org/1999/xlink"><filter id="a" filterUnits="userSpaceOnUse" height="200" width="200" x="0" y="0"><feColorMatrix values="1 0 0 0 0 0 1 0 0 0 0 0 1 0 0 0 0 0 1 0"/></filter><mask id="b" height="200" maskUnits="userSpaceOnUse" width="200" x="0" y="0"><g filter="url(#a)"><path d="m0 0h200v200h-200z" fill="#fff"/></g></mask><filter id="c" filterUnits="userSpaceOnUse" height="200" width="200" x="0" y="0"><feColorMatrix values="1 0 0 0 0 0 1 0 0 0 0 0 1 0 0 0 0 0 1 0"/></filter><mask id="d" height="200" maskUnits="userSpaceOnUse" width="200" x="0" y="0"><g filter="url(#c)"><path d="m61.357 0c-1.987 0-3.974 0-5.961.016a258.06 258.06 0 0 0 -6.032.087c-4.387.119-8.806.374-13.146 1.152-4.395.795-8.488 2.082-12.486 4.117-3.926 2.003-7.519 4.61-10.634 7.725s-5.722 6.708-7.725 10.634c-2.035 3.998-3.322 8.091-4.117 12.494-.779 4.332-1.033 8.751-1.152 13.138a252.838 252.838 0 0 0 -.087 6.032c-.017 1.917-.017 3.832-.017 5.748v77.707c0 1.915 0 3.831.016 5.746.016 2.011.032 4.022.087 6.032.119 4.379.374 8.798 1.152 13.138.787 4.403 2.082 8.496 4.117 12.494a42.099 42.099 0 0 0 7.725 10.634 41.897 41.897 0 0 0 10.634 7.725c3.998 2.035 8.091 3.322 12.486 4.117 4.332.779 8.759 1.041 13.138 1.152 2.011.056 4.022.079 6.032.087 1.987.016 3.974.016 5.961.016h77.293c1.987 0 3.974 0 5.961-.016 2.011-.016 4.022-.032 6.032-.087 4.387-.119 8.806-.374 13.138-1.152 4.395-.787 8.488-2.082 12.486-4.117a42.099 42.099 0 0 0 10.634-7.725 41.897 41.897 0 0 0 7.725-10.634c2.035-3.998 3.322-8.091 4.117-12.494.779-4.332 1.033-8.751 1.152-13.138.056-2.011.079-4.022.087-6.032.008-1.915.016-3.839.016-5.754v-77.69c0-1.915 0-3.839-.016-5.754a310.972 310.972 0 0 0 -.087-6.032c-.119-4.379-.374-8.798-1.152-13.138-.787-4.403-2.082-8.496-4.117-12.494a42.099 42.099 0 0 0 -7.725-10.634 41.897 41.897 0 0 0 -10.634-7.725c-3.998-2.035-8.091-3.322-12.486-4.117-4.332-.779-8.759-1.041-13.138-1.152a252.838 252.838 0 0 0 -6.032-.087c-1.986-.019-3.973-.019-5.959-.019z" fill="#fff"/></g></mask><linearGradient id="e" gradientTransform="matrix(25.164 0 0 -25.164 6089.328 -39883.18)" gradientUnits="userSpaceOnUse" x1="-238.012" x2="-238.012" y1="-1584.922" y2="-1592.87"><stop offset="0" stop-color="#ef4db7"/><stop offset="1" stop-color="#c643fd"/></linearGradient><filter id="f" filterUnits="userSpaceOnUse" height="53.259" width="46.749" x="99.96" y="112.923"><feColorMatrix values="1 0 0 0 0 0 1 0 0 0 0 0 1 0 0 0 0 0 1 0"/></filter><mask id="g" height="53.259" maskUnits="userSpaceOnUse" width="46.749" x="99.96" y="112.923"><g filter="url(#f)"><path d="m0 0h200v200h-200z" fill="#fff"/></g></mask><filter id="h" filterUnits="userSpaceOnUse" height="53.259" width="46.749" x="87.96" y="98.923"><feColorMatrix values="1 0 0 0 0 0 1 0 0 0 0 0 1 0 0 0 0 0 1 0"/></filter><mask id="i" height="53.259" maskUnits="userSpaceOnUse" width="46.749" x="87.96" y="98.923"><g filter="url(#h)"><path d="m87.96 121.511 34.994 25.417a120.541 120.541 0 0 0 5.675 3.894c.66.429 1.359.787 2.098 1.041.087.032.175.056.27.087.54.159 1.025.23 1.494.199.453-.04.858-.175 1.184-.421.334-.238.588-.58.763-1.001.175-.429.262-.914.278-1.478v-.278a9.194 9.194 0 0 0 -.342-2.321 126.013 126.013 0 0 0 -1.947-6.597l-13.368-41.13z" fill="#fff"/></g></mask><radialGradient id="j" cx="-222.541" cy="-1914.29" gradientTransform="matrix(5.882 0 0 -5.882 1301.425 -11138.379)" gradientUnits="userSpaceOnUse" r=".035"><stop offset="0" stop-color="#f9e3fb"/><stop offset=".746" stop-color="#f9e3fb"/><stop offset=".81" stop-color="#f8defb"/><stop offset=".883" stop-color="#f3d0fa"/><stop offset=".96" stop-color="#ecbaf9"/><stop offset=".981" stop-color="#eab2f9"/><stop offset="1" stop-color="#eab2f9"/></radialGradient><filter id="k" filterUnits="userSpaceOnUse" height="36.552" width="54.872" x="25.862" y="76.371"><feColorMatrix values="1 0 0 0 0 0 1 0 0 0 0 0 1 0 0 0 0 0 1 0"/></filter><mask id="l" height="36.552" maskUnits="userSpaceOnUse" width="54.872" x="25.862" y="76.371"><g filter="url(#k)"><path d="m0 0h200v200h-200z" fill="#fff"/></g></mask><filter id="m" filterUnits="userSpaceOnUse" height="36.552" width="54.872" x="22.862" y="67.371"><feColorMatrix values="1 0 0 0 0 0 1 0 0 0 0 0 1 0 0 0 0 0 1 0"/></filter><mask id="n" height="36.552" maskUnits="userSpaceOnUse" width="54.872" x="22.862" y="67.371"><g filter="url(#m)"><path d="m34.49 67.371c-2.289 0-4.586.064-6.875.183a9.253 9.253 0 0 0 -2.313.397c-.087.024-.175.056-.262.087-.533.183-.97.413-1.319.715-.35.294-.588.644-.715 1.033s-.135.811-.032 1.256c.111.453.326.898.644 1.359.056.079.103.151.167.23a9.347 9.347 0 0 0 1.637 1.677c1.78 1.447 3.6 2.845 5.452 4.189l34.986 25.425 11.874-36.552h-43.244z" fill="#fff"/></g></mask><radialGradient id="o" cx="-215.157" cy="-1993.929" gradientTransform="matrix(4.599 0 0 -4.599 916.993 -9179.287)" gradientUnits="userSpaceOnUse" r=".045"><stop offset="0" stop-color="#fae1f8"/><stop offset=".6" stop-color="#fae1f8"/><stop offset=".85" stop-color="#f7d6f7"/><stop offset="1" stop-color="#f7d6f7"/></radialGradient><filter id="p" filterUnits="userSpaceOnUse" height="53.259" width="46.749" x="53.211" y="112.923"><feColorMatrix values="1 0 0 0 0 0 1 0 0 0 0 0 1 0 0 0 0 0 1 0"/></filter><mask id="q" height="53.259" maskUnits="userSpaceOnUse" width="46.749" x="53.211" y="112.923"><g filter="url(#p)"><path d="m0 0h200v200h-200z" fill="#fff"/></g></mask><filter id="r" filterUnits="userSpaceOnUse" height="53.259" width="46.749" x="47.211" y="98.923"><feColorMatrix values="1 0 0 0 0 0 1 0 0 0 0 0 1 0 0 0 0 0 1 0"/></filter><mask id="s" height="53.259" maskUnits="userSpaceOnUse" width="46.749" x="47.211" y="98.923"><g filter="url(#r)"><path d="m49.5 140.053a125.729 125.729 0 0 0 -1.947 6.597 9.914 9.914 0 0 0 -.342 2.321v.278c.016.564.095 1.049.278 1.478.175.421.429.763.763 1.001s.731.382 1.184.421c.461.04.954-.032 1.494-.199.087-.024.175-.056.27-.087a9.371 9.371 0 0 0 2.098-1.041 125.998 125.998 0 0 0 5.667-3.894l34.994-25.425-19.735-14.338-11.364-8.258z" fill="#fff"/></g></mask><radialGradient id="t" cx="-189.432" cy="-1927.195" gradientTransform="matrix(5.882 0 0 -5.882 1266.251 -11137.193)" gradientUnits="userSpaceOnUse" r=".035"><stop offset="0" stop-color="#fae9fc"/><stop offset=".669" stop-color="#fae9fc"/><stop offset=".812" stop-color="#f8defa"/><stop offset=".91" stop-color="#f6d4f8"/><stop offset="1" stop-color="#f6d4f8"/></radialGradient><filter id="u" filterUnits="userSpaceOnUse" height="36.552" width="54.88" x="119.17" y="76.363"><feColorMatrix values="1 0 0 0 0 0 1 0 0 0 0 0 1 0 0 0 0 0 1 0"/></filter><mask id="v" height="36.552" maskUnits="userSpaceOnUse" width="54.88" x="119.17" y="76.363"><g filter="url(#u)"><path d="m0 0h200v200h-200z" fill="#fff"/></g></mask><filter id="w" filterUnits="userSpaceOnUse" height="36.552" width="54.88" x="105.17" y="67.363"><feColorMatrix values="1 0 0 0 0 0 1 0 0 0 0 0 1 0 0 0 0 0 1 0"/></filter><mask id="x" height="36.552" maskUnits="userSpaceOnUse" width="54.88" x="105.17" y="67.363"><g filter="url(#w)"><path d="m105.178 67.371 11.874 36.552 34.994-25.425a131.343 131.343 0 0 0 5.452-4.189 9.347 9.347 0 0 0 1.637-1.677c.056-.079.111-.151.167-.23.318-.461.54-.906.644-1.359.103-.445.095-.866-.032-1.256a2.266 2.266 0 0 0 -.715-1.033c-.35-.302-.795-.533-1.319-.715a2.976 2.976 0 0 0 -.262-.087 9.846 9.846 0 0 0 -2.313-.397 124.005 124.005 0 0 0 -6.875-.183h-43.252z" fill="#fff"/></g></mask><radialGradient id="y" cx="-180.463" cy="-2040.194" gradientTransform="matrix(4.599 0 0 -4.599 973.96 -9179.288)" gradientUnits="userSpaceOnUse" r=".045"><stop offset="0" stop-color="#fae9fb"/><stop offset=".68" stop-color="#fae9fb"/><stop offset=".813" stop-color="#f8def8"/><stop offset=".98" stop-color="#f5caf2"/><stop offset="1" stop-color="#f5caf2"/></radialGradient><filter id="z" filterUnits="userSpaceOnUse" height="59.14" width="62.192" x="68.86" y="76.371"><feColorMatrix values="1 0 0 0 0 0 1 0 0 0 0 0 1 0 0 0 0 0 1 0"/></filter><mask id="A" height="59.14" maskUnits="userSpaceOnUse" width="62.192" x="68.86" y="76.371"><g filter="url(#z)"><path d="m0 0h200v200h-200z" fill="#fff"/></g></mask><filter id="B" filterUnits="userSpaceOnUse" height="51.311" width="38.436" x="80.742" y="25.06"><feColorMatrix values="1 0 0 0 0 0 1 0 0 0 0 0 1 0 0 0 0 0 1 0"/></filter><mask id="C" height="51.311" maskUnits="userSpaceOnUse" width="38.436" x="80.742" y="25.06"><g filter="url(#B)"><path d="m0 0h200v200h-200z" fill="#fff"/></g></mask><filter id="D" filterUnits="userSpaceOnUse" height="51.311" width="38.436" x="70.742" y="22.06"><feColorMatrix values="1 0 0 0 0 0 1 0 0 0 0 0 1 0 0 0 0 0 1 0"/></filter><mask id="E" height="51.311" maskUnits="userSpaceOnUse" width="38.436" x="70.742" y="22.06"><g filter="url(#D)"><path d="m88.752 22.417c-.397.246-.747.588-1.089 1.033-.056.072-.111.151-.167.223a9.398 9.398 0 0 0 -1.089 2.074c-.827 2.138-1.59 4.3-2.297 6.478l-13.368 41.138h38.436l-13.368-41.138a132.429 132.429 0 0 0 -2.297-6.478 9.203 9.203 0 0 0 -1.089-2.074 6.165 6.165 0 0 0 -.167-.223c-.342-.445-.691-.795-1.089-1.033a2.294 2.294 0 0 0 -1.208-.358c-.413.001-.818.12-1.208.358" fill="#fff"/></g></mask><radialGradient id="F" cx="-211.073" cy="-1992.589" gradientTransform="matrix(4.836 0 0 -4.836 1015.191 -9503.692)" gradientUnits="userSpaceOnUse" r=".043"><stop offset="0" stop-color="#fbe3f8"/><stop offset=".745" stop-color="#fbe3f8"/><stop offset=".808" stop-color="#fadef6"/><stop offset=".88" stop-color="#f9d1f0"/><stop offset=".955" stop-color="#f6bae7"/><stop offset=".98" stop-color="#f5b1e3"/><stop offset="1" stop-color="#f5b1e3"/></radialGradient><g mask="url(#b)"><path d="m0 0h200v200h-200z" fill="url(#e)" mask="url(#d)"/></g><g mask="url(#g)"><path d="m87.96 98.923h46.749v53.259h-46.749z" fill="url(#j)" mask="url(#i)" transform="translate(12 14)"/></g><g mask="url(#l)"><path d="m22.862 67.371h54.872v36.552h-54.872z" fill="url(#o)" mask="url(#n)" transform="translate(3 9)"/></g><g mask="url(#q)"><path d="m47.211 98.923h46.749v53.259h-46.749z" fill="url(#t)" mask="url(#s)" transform="translate(6 14)"/></g><g mask="url(#v)"><path d="m105.17 67.363h54.88v36.552h-54.88z" fill="url(#y)" mask="url(#x)" transform="translate(14 9)"/></g><path d="m80.742 76.371-11.882 36.552 11.366 8.25 19.734 14.338 31.092-22.588-11.874-36.552z" fill="#fff" mask="url(#A)"/><g mask="url(#C)"><path d="m70.742 22.06h38.436v51.311h-38.436z" fill="url(#F)" mask="url(#E)" transform="translate(10 3)"/></g></svg>