<svg viewBox="0 0 200 200" xmlns="http://www.w3.org/2000/svg"><path d="m155.471 106.278c-30.858-18.971-75.95-24.304-112.251-13.288-4.118 1.253-6.441 5.598-5.205 9.724 1.25 4.113 5.597 6.436 9.718 5.193 31.777-9.649 72.724-4.862 99.582 11.652 3.663 2.255 8.684 1.103 10.684-2.565v.003c2.001-3.664 1.135-8.465-2.528-10.719zm-9.632 37.94-.003.003c1.809-2.935.87-6.767-2.063-8.573-26.348-16.108-59.008-19.855-97.084-11.144-3.356.762-5.449 4.106-4.69 7.46.769 3.354 4.111 5.458 7.463 4.686 34.792-7.948 64.342-4.708 87.812 9.646a6.225 6.225 0 0 0 8.565-2.078zm26.096-58.848c2.63-4.437 1.171-10.179-3.267-12.817-37.092-22.027-95.793-24.102-131.099-13.376-4.938 1.502-7.722 6.724-6.23 11.668 1.495 4.941 6.721 7.729 11.656 6.233 30.767-9.341 83.91-7.581 116.132 11.56 4.429 2.641 10.182 1.178 12.808-3.268z" fill="#fff"/><path d="m100-.004v-.003c-55 0-99.955 44.771-99.955 99.997 0 55.235 44.751 100.003 99.956 100.003 55.208 0 99.952-44.768 99.952-100.003 0-55.223-44.953-99.994-99.953-99.994z" fill="#24cf5f"/><path d="m147.316 119.559c-26.858-16.514-67.805-21.301-99.582-11.652-4.121 1.243-8.469-1.08-9.718-5.193-1.236-4.126 1.087-8.471 5.205-9.724 36.3-11.017 81.393-5.684 112.25 13.288 3.663 2.254 4.529 7.055 2.529 10.719v-.003c-2 3.668-7.021 4.82-10.684 2.565zm-97.855 17.09c-3.353.772-6.695-1.332-7.463-4.686-.759-3.354 1.334-6.698 4.69-7.46 38.076-8.71 70.736-4.964 97.084 11.144 2.934 1.806 3.872 5.638 2.063 8.573l.003-.003a6.224 6.224 0 0 1 -8.565 2.078c-23.469-14.354-53.019-17.593-87.812-9.646zm109.666-48.01c-32.222-19.141-85.365-20.902-116.132-11.56-4.935 1.496-10.161-1.292-11.656-6.233-1.491-4.944 1.292-10.166 6.23-11.668 35.306-10.726 94.006-8.651 131.098 13.376 4.438 2.637 5.897 8.38 3.267 12.817-2.625 4.445-8.378 5.908-12.807 3.268z" fill="#fff"/></svg>