<svg viewBox="0 0 200 200" xmlns="http://www.w3.org/2000/svg"><path d="m0 99.8c0-55.2 44.7-99.8 100-99.8 55.2 0 100 44.7 100 99.9 0 55.4-44.9 100.1-100.3 100.1-55.2-.1-99.7-44.8-99.7-100.2zm99.9 52.8c29 0 52.6-23.5 52.7-52.5.1-28.9-23.5-52.7-52.4-52.8-29-.1-53 23.8-52.9 52.7s23.7 52.6 52.6 52.6z" fill="#f9061b"/><path d="m99.9 152.6c-28.9 0-52.6-23.6-52.6-52.6-.1-28.9 24-52.9 52.9-52.7 28.9.1 52.5 23.9 52.4 52.8-.1 29-23.7 52.5-52.7 52.5zm0-5.1c26.2 0 47.5-21.2 47.6-47.3.1-26.4-21.1-47.7-47.5-47.7-26.2 0-47.5 21.1-47.5 47.2-.1 26.4 21.1 47.8 47.4 47.8z" fill="#fff"/><path d="m99.9 147.5c-26.3 0-47.5-21.3-47.4-47.8.1-26.2 21.3-47.3 47.5-47.2 26.3 0 47.5 21.3 47.5 47.7-.1 26.1-21.4 47.3-47.6 47.3zm26.7-48.7c-15.2-8.6-29.7-16.7-44.7-25.2v52.6c15.1-9.1 29.5-18 44.7-27.4z" fill="#f9061b"/><path d="m126.6 98.8c-15.2 9.3-29.6 18.2-44.7 27.5v-52.6c15 8.4 29.5 16.5 44.7 25.1z" fill="#fff"/></svg>