<svg height="39" viewBox="0 0 466 39" width="466" xmlns="http://www.w3.org/2000/svg"><g fill="#00ff9d" fill-rule="nonzero" transform="translate(2)"><g fill-opacity=".16" stroke="#00ff9d" stroke-width="2.5" transform="translate(0 2.3636)"><path d="m26.7741573 33.5277503h-26.7741573v-33.5277503h24.1650747c4.472713 0 7.6615917.62585134 9.5666362 1.87755402 1.9050444 1.25170267 2.8575667 3.0696518 2.8575667 5.45384738 0 2.41399802-.6005032 4.2692002-1.8015095 5.5656065-1.2010062 1.2964064-2.8368596 2.1532267-4.9075601 2.5704609v.3129257c6.0050314.7450611 9.0075471 3.6955031 9.0075471 8.851326 0 2.6822201-.9835827 4.8354467-2.9507482 6.4596799-1.9671654 1.6242333-5.0214487 2.4363499-9.1628496 2.4363499zm-6.0257384-13.3663965h-5.8393754v5.4985511h5.7151333c2.1121145 0 3.1681718-.9238758 3.1681718-2.7716274 0-1.8179491-1.0146433-2.7269237-3.0439297-2.7269237zm-1.1181783-12.8299524h-4.7211971v5.0068107h4.5969551c1.9050444 0 2.8575666-.8344684 2.8575666-2.50340535 0-1.6689369-.9111082-2.50340535-2.7333246-2.50340535z"/><path d="m44.9285714 0h14.7737356v25.1244698h5.2323647c1.8877551 0 3.1701974-.1785042 3.847327-.5355127.6771295-.3570084 1.0156943-1.1305267 1.0156943-2.3205549v-22.2684022h14.7737356v18.7875698c0 2.8560676-.2564885 5.2658747-.7694654 7.2294212-.512977 1.9635464-1.4978927 3.5626468-2.9547471 4.797301-1.4568545 1.2346543-3.4779836 2.1197377-6.0633874 2.6552504-2.5854037.5355127-5.9300133.803269-10.0338287.803269s-7.448425-.2677563-10.0338287-.803269c-2.5854038-.5355127-4.6065329-1.4131585-6.0633874-2.6329373-1.4568544-1.2197789-2.4417701-2.8188793-2.9547471-4.7973011-.5129769-1.9784219-.7694654-4.3956666-.7694654-7.2517342z"/><path d="m89.4795918 0 13.4704812 24.4082022v9.1195481h14.967201v-9.1195481l13.470481-24.4082022h-16.526285l-4.178343 11.8017681h-.56127l-4.115981-11.8017681z"/></g><path d="m199.334832 3.95299913 9.596699 22.57500087.000201 2.3017255.977799-.0007255 4.324 10.172-.435858-.0023637c-.87214-.0095615-1.710305-.0394836-2.514494-.0897662l-13.945249-32.80555075c.371399-.51410845.778735-.99376097 1.222008-1.43895756.246071-.24713777.504369-.48425866.774894-.71136266zm14.574699 24.87600087 4.267838 10.0361417c-.906525.0702672-1.858201.1134772-2.855026.12963l-4.322812-10.1657717zm-17.230499-21.71342785 13.477624 31.70754325c-1.098936-.0992243-2.128992-.2397263-3.090169-.4215061l-11.829956-27.8326093.074257-.2564439c.348883-1.16844204.804964-2.23410334 1.368244-3.19698395zm21.118315 21.44619315 4.166879 9.8021274c-.856944.168727-1.769724.3039935-2.738338.4057992l-4.226838-9.9422219c1.143058-.0148859 2.075824-.1034541 2.798297-.2657047zm56.551184 3.2132347 2.747 6.462-2.746276.0002587zm-33.274 4.499.835 1.963-.834612.0002587zm-90.748-6.466 3.583 8.429h-2.911l-.672-1.582zm0-9.41 7.583 17.839h-2.911l-4.672-10.991zm0-9.409 11.583 27.248h-2.911l-8.672-20.401zm0-9.41 13.612 32.021.000429 4.6372587-.940429-.0002587-12.672-29.811zm23.821 27.809 3.762 8.849h-2.911l-.851-2.002zm-2.539-15.383 10.301 24.232h-2.911l-4.851-11.411.0006-1.8290294-.7786-.0009706-4.672-10.991zm2.539-3.436 11.762 27.668h-2.911l-10.301-24.232 1.4506.0000333zm0-9.409 13.612 32.02.000828 5.0572587-.761828-.0002587-12.851-30.23zm66.927 25.704 4.835 11.373h-2.911l-1.924-4.526zm0-9.409 8.835 20.782h-2.911l-5.924-13.935zm0-9.41 12.835 30.192h-2.911l-9.924-23.345zm.905-7.281 15.93 37.473h-2.911l-13.924-32.755.000388-4.71725483zm12.941 27.88h2.911l4.078 9.593h-2.911zm4 0h2.911l4.078 9.593h-2.911zm4 0h2.901l2.855 6.717.000962 2.8762587-1.678962-.0002587zm11.428-6.279 6.747 15.872h-2.91l-3.837-9.025zm0-9.409 10.747 25.281h-2.91l-7.837-18.434zm0-9.409 14.747 34.69h-2.91l-11.837-27.844zm2.817-2.783 10.861 25.548.000712 2.3322953.990288-.0002953 4.078 9.593h-2.91l-15.837-37.253.000724-.21925483zm15.852 27.88 4.03209 9.4818805c-.910758.0605326-1.865744.0963911-2.864958.1075758l-4.077132-9.5894563zm-73.057-4.4 5.572152 13.1043774c-.404438.1571764-.823622.3031481-1.257554.4379152-.420571.1306179-.858707.2507105-1.314406.3602777l-4.208192-9.8985703.119838-.0611137c.725548-.4120764 1.088323-1.2563753 1.088323-2.5328965zm-25.11766-12.0373855 11.026735 25.9387653c-.453922-.1092465-.890407-.2289422-1.309456-.3590872-.738775-.229443-1.434805-.4913633-2.08809-.7857609l-8.24527-19.3994762c.080114-1.9752638.285474-3.7734108.616081-5.394441zm102.057638 16.1606676 3.960696 9.3176259c-.864274.1498212-1.783179.2691639-2.756716.3580282l-3.997703-9.4013028c1.143601-.0163284 2.074842-.1077788 2.793723-.2743513zm2.126022-4.4072821 5.446626 12.8122139c-.431149.1515121-.878861.2901169-1.343136.4158144-.405017.1096539-.82544.2107129-1.261269.3031771l-4.017221-9.4482054.089689-.0459808c.723603-.4149206 1.085404-1.2650467 1.085404-2.5503784zm-79.066-9.126 8.835764 20.7817157c-.706257.5038525-1.486517.9514781-2.34078 1.3428769l-6.494984-15.2775926zm79.066-.283 8.755598 20.5936668c-.715572.4809648-1.506323.9033447-2.372253 1.2671399l-6.383345-15.0138067zm-104.835404 5.5313804 6.88669 16.2029982c-1.051581-.6120025-1.967067-1.3274092-2.746458-2.14622-1.542911-1.6209484-2.61914-3.6471339-3.228685-6.0785566-.575987-2.297562-.879836-4.9569692-.911547-7.9782216zm20.553404-20.0803804-.326892-.002c1.151437 0 2.24573.03406719 3.28288.10220158l13.901314 32.70578642c-.335098.4705317-.701069.9142552-1.097913 1.3311706-.278991.2931013-.57542.572953-.889288.8395549l-9.654101-22.7077135.000161-2.0987216-.892161-.0002784zm82.473169.88268456 13.406224 31.53709544c-.387068.5293013-.814341 1.018857-1.281817 1.4686671-.232119.2233462-.475625.4378176-.73052.6434143l-14.353418-33.76455669c1.034086.01255045 2.020596.0510104 2.959531.11537985zm-30.307169 27.75931544 1.766962.0002953-.000962 4.1537047zm-44.987374-28.01674346 11.751374 27.64874346-.061685.2357449c-.334852 1.1936364-.787014 2.2854092-1.356485 3.2753183l-13.428929-31.59532119c1.10202.10337313 2.133928.24854464 3.095725.43551453zm79.517769.78080986 11.273701 26.5217909c-.01271.0468066-.025547.0934264-.038511.1398594-.344139 1.2326578-.807872 2.3470854-1.391199 3.3432828l-12.937525-30.43618914c1.102587.10486251 2.133765.24861453 3.093534.43125604zm-147.461395-.6440664 10.301 24.232-.341571.0009706-.000429 6.0410294-12.869-30.274zm24 0 9.78 23.007v6.847l-12.691-29.854zm68 0 8.896 20.927v6.847l-11.807-27.774zm-21.932981.37728001c.89083.2635761 1.722225.57677638 2.494186.93960083l8.082143 19.01493896c-.063665 2.0033666-.253758 3.8386288-.570281 5.5057866l-10.929365-25.71040603c.316407.07821196.62418.16157184.923317.25007964zm79.083471.64771387c1.05756.27950567 2.029178.62737879 2.914854 1.04361935l7.61177 17.90438437c-.054394 2.0386363-.240685 3.882351-.558873 5.5311442l-10.459527-24.60317804c.166374.04000972.330299.08135309.491776.12403012zm-145.15049-1.02499388 10.301 24.232h-2.911l-10.301-24.232zm9.629 13.241 4.672 10.991h-2.911l-4.672-10.991zm34.892507-12.01332221 6.430493 15.12632221v6.847l-8.776524-20.64348947c.710662-.50172446 1.492673-.94500204 2.346031-1.32983274zm78.664493-1.22767779 6.861 16.139v6.847l-9.772-22.986zm-99.186 0 5.78 13.597v6.847l-8.691-20.444zm68 0 4.896 11.518v6.847l-7.807-18.365zm-19.704191 3.90036179c1.581008 1.58786784 2.704858 3.61405337 3.371548 6.07855661.601479 2.2234427.931635 4.830576.990467 7.8213999l-6.683836-15.72359834c.866052.53097354 1.639992 1.13885414 2.321821 1.82364183zm79.066767.3972316c1.55777 1.49890055 2.669107 3.4308168 3.334009 5.79574881.579162 2.0599698.906085 4.4990241.980769 7.3171629l-6.194342-14.57167093c.692852.43348634 1.319373.91973942 1.879564 1.45875922zm-103.335985-4.23279541 4.209942 9.90194242c-.009105.0040375-.018153.0080968-.027145.012178-.838125.3804266-1.257187 1.2487919-1.257187 2.6050957l-.000201 1.2079859-5.504151-12.94847415c.445928-.16965224.909235-.32506752 1.389922-.46624584.382953-.11247397.779227-.21663465 1.18882-.31248203zm79.159409-.06479798 4.078 9.593-1.216288.0007086-.000712 3.9832914-5.772-13.577zm-123.186 0 1.959 4.609v6.847l-4.87-11.456zm24 0 1.78 4.188v6.847l-4.691-11.035zm107.186 0 4.260259 10.0184666c-.725449-.2466457-1.754549-.3858759-3.087298-.4176907l-4.083961-9.6007759zm-83.416754-.54364726 4.230754 9.95264726-.149595.0018145c-1.064808.0153214-1.948872.1000612-2.652192.2542196l-4.171659-9.81265239c.861006-.16522811 1.775236-.29723776 2.742692-.39602897zm79.416754.54364726 4.078 9.593h-2.911l-4.078-9.593zm-75.509136-.75882591 4.322136 10.16682591h-2.91l-4.270509-10.04420971c.909243-.06805101 1.862034-.10892308 2.858373-.1226162zm40.313136.75882591.906 2.132v6.823l-3.807-8.955zm-90.030571.00074517-.000429 2.04525483-.87-2.046zm23.821399 0-.000828 1.62425483-.691-1.625z"/><g transform="translate(332.6122 2.3636)"><path d="m23.5952069 22.8485409 5.8537727 11.4242705h-11.8876615l-4.412844-10.1904493h-2.3415091v10.1904493h-10.806965v-34.2728114h17.0209699c7.7449915 0 11.6174873 4.00611084 11.6174873 12.0183325 0 5.4836499-1.6810834 9.0937193-5.0432503 10.8302084zm-10.3116458-14.07470118h-2.4765961v6.85456228h2.4765961c1.3208513 0 2.2739656-.1370912 2.8593429-.4112737.5853772-.2741825.8780659-.8987093.8780659-1.8735804v-2.2848541c0-.9748711-.2926887-1.59939785-.8780659-1.87358034-.5853773-.27418249-1.5384916-.41127374-2.8593429-.41127374z"/><path d="m44.3888575 28.8348587h8.9627329l1.2674572 5.4379527h11.452381l-8.7816676-34.2728114h-16.7938077l-8.7816676 34.2728114h11.452381zm4.7982308-18.3245299 2.1727837 9.5963872h-4.9792961l2.2180501-9.5963872z"/><path d="m99.6734694 34.2728114h-10.2494331l-8.2993197-12.1554238c-.1511716-.213253-.2721089-.5331326-.3628118-.9596387-.090703-.4265061-.1511716-.9901034-.1814059-1.690792h-.2267574v14.8058545h-10.8843537v-34.2728114h10.2494331l8.2993197 12.1554238c.1511716.213253.2721088.5331326.3628118.9596387.0907029.4265061.1511716.9901034.1814059 1.690792h.2267573v-14.8058545h10.8843538z"/><path d="m131.387755 0h-27.183673v8.77383972h8.044148v25.49897168h11.095377v-25.49897168h8.044148z"/></g></g></svg>