<svg height="35" viewBox="0 0 225 35" width="225" xmlns="http://www.w3.org/2000/svg"><g fill="#0e3281" transform="translate(.68 .4)"><path d="m0 33.6h25.968c8.304 0 11.232-2.928 11.232-11.232v-11.136c0-8.304-2.928-11.232-11.232-11.232h-25.968zm16.32-9.6v-14.4h4.56v14.4z"/><path d="m79.868 0h-16.32v24h-4.368v-24h-16.32v22.368c0 8.304 2.928 11.232 11.232 11.232h14.544c8.304 0 11.232-2.928 11.232-11.232z"/><path d="m85.528 25.008c0 6.192 2.4 8.592 8.592 8.592h19.536c6.192 0 8.592-2.4 8.592-8.592v-4.8c0-6.528-3.072-7.968-9.744-8.4l-10.656-.672v-2.88h4.56v2.064h15.84v-1.728c0-6.192-2.4-8.592-8.592-8.592h-19.536c-6.192 0-8.592 2.4-8.592 8.592v4.272c0 6.528 3.072 8.064 9.744 8.448l10.656.624v3.36h-4.56v-2.496h-15.84z"/><path d="m158.34 0h-31.2v12.96h7.44v20.64h16.32v-20.64h7.44z"/><path d="m163.232 0v33.6h16.896v-33.6z"/><path d="m185.788 33.6h15.168v-11.424h.336l6.432 11.424h15.744v-33.6h-15.168v11.424h-.336l-6.432-11.424h-15.744z"/></g></svg>