<svg height="144" viewBox="0 0 144 144" width="144" xmlns="http://www.w3.org/2000/svg"><path d="m122.732 122.729h-21.648v-37.564c0-11.083-4.711-14.501-10.788-14.501-6.423 0-12.722 4.835-12.722 14.778v37.287h-21.649v-68.775h20.82v9.529h.276c2.095-4.234 9.407-11.462 20.577-11.462 12.08 0 25.134 7.165 25.134 28.173zm-90.636-78.357c-6.894 0-12.482-5.246-12.482-12.426s5.588-12.432 12.482-12.432c6.893 0 12.481 5.252 12.481 12.432s-5.588 12.426-12.481 12.426zm-10.824 78.304h21.649v-68.774h-21.649zm112.102-122.676h-122.744c-5.871 0-10.63 4.759-10.63 10.63v122.74c0 5.871 4.759 10.63 10.63 10.63h122.744c5.871 0 10.63-4.759 10.63-10.63v-122.74c0-5.871-4.759-10.63-10.63-10.63zm17.009 121.023v-1.341h1.172c.511 0 .803.234.803.644 0 .436-.301.697-.803.697zm1.779.488c.581-.18.929-.635.929-1.217 0-.779-.531-1.245-1.419-1.245h-2.001v4.11h.712v-1.565h.904l1.102 1.565h.877l-1.16-1.631zm-.9 3.086c-1.958 0-3.493-1.534-3.493-3.493s1.535-3.493 3.493-3.493c1.959 0 3.494 1.534 3.494 3.493s-1.535 3.493-3.494 3.493zm0-7.603c-2.312 0-4.109 1.804-4.109 4.11s1.797 4.109 4.109 4.109c2.314 0 4.111-1.803 4.111-4.109s-1.797-4.11-4.111-4.11z" fill="#fffffe" fill-rule="evenodd"/></svg>