<svg height="125" viewBox="0 0 567 125" width="567" xmlns="http://www.w3.org/2000/svg"><g fill="#fff" transform="translate(.4 .897118)"><path d="m543.9 11.5028818c10.4 0 16 4.8 16 4.8l-2.3 1.9s-4.3-3.6-12.3-3.6c-5.8 0-9.9 4-9.9 9.6 0 7.1 7 13.6 15.3 22 7.2 7.4 15 15.7 15 25.8 0 13.1-12 21.1-27.1 21.1-7.3 0-12.5-1.8-17.1-5.5l2-2.4c4.1 3.3 9.2 5.1 14.5 4.9 7.6 0 13.4-3.9 13.4-10.4 0-6.9-7.6-14.8-15-22.3-8.4-8.6-16.5-17.3-16.5-26.8-.1-11.7 9.7-19.1 24-19.1m-76 21c-19.1 0-29.6 13.2-29.6 30.2 0 18.7 10.8 30.3 29.8 30.3 11.7 0 16.9-5.4 16.9-5.4l-2-1.9c-3.1 2.2-6.9 3.4-10.7 3.5-11.8 0-15.8-12.1-15.8-26.7 0-16.8 4.1-26.6 14.6-26.6 3.5 0 7 1 9.9 2.9l2-2.1s-5-4.2-15.1-4.2m-263.4 60.5c21 0 35.4-14.7 35.4-36 0-25.1-21.2-42.8-44.6-42.8-25.4 0-43.9 17.6-43.9 42.2-.1 8.7 2.3 17.3 6.9 24.7l2.5-1.2c-3.3-6.3-5.1-13.4-5.1-20.6 0-20.8 15.3-32.6 34.5-32.6 19 0 33.2 13 33.2 32.3 0 17.8-10 30.7-26.2 30.7v-43.9h-16.9v72.5000002h16.9v-25.7000002c2.4.3 4.8.4 7.3.4m81.6-1.3h16.9v-57.4h-16.9v42.2c0 6.2-6.2 11.7-12.5 11.7-6.5 0-10-4.4-10-13.2 0-9.9 7.3-40.7 7.3-40.7h-16.9s-7.1 30.8-7.1 40.2c0 11.2 8.1 18.5 20.2 18.5 9.4 0 16-4.2 19.1-9.3v8zm96.6 0h16.9v-91.10000002h-16.9zm-36.9 1.3c-6.7 0-11.4-3-13.9-6.9v5.6h-16.9v-91.10000002h16.9v39.00000002c2.5-4.4 8.3-7.1 15.6-7.1 15.6 0 26.2 10.6 26.2 28 .1 19.8-11.1 32.5-27.9 32.5m-3.3-3.5c11.7 0 13.7-15.6 13.7-28.8 0-14.7-4.5-25-12.9-25-5.5 0-10.6 4.2-11.5 12.5v30.2c.1 5.6 5 11.1 10.7 11.1m69.2-55.1h16.9v57.4h-16.9zm8.5-26.50000002c5.4 0 9.2 3.80000002 9.2 8.90000002s-3.8 8.9-9.2 8.9-9.1-3.8-9.1-8.9 3.8-8.90000002 9.1-8.90000002m73 26.50000002h16.9v57.4h-16.9zm8.5-26.50000002c5.3 0 9.2 3.80000002 9.2 8.90000002s-3.8 8.9-9.2 8.9-9.2-3.8-9.2-8.9 3.8-8.90000002 9.2-8.90000002"/><path d="m89.7 49.9028818c1.5-4.5 8.5-4.4 11.4-6.3 2.1-1.4 4.1-2.8 4.2-9.3.1-5.6 2.7-7.1 4.3-7.6 0-1.6-2.4-.5-4.4 1.1 2.9-7.2 9-1.2 9-1.2-3.6-6.3-8.8-3.4-10.6-.3s-.5 10.2-4.3 12-5.8-1.5-8.5-.7c-3.9 1.1-4 6.3-8 4.6 3-1.9 2.9-3.7 4.9-5.9 4.2-4.6 11.1.5 12.6-12.5l.7 2.5c7.2-9.7 15.6-1.2 14.4 1.5-10-1.8-7.9 6.1-8.9 11.5h7.3zm13.6-13.4c1.1 7.2-14 4.5-15.8 10.4 3-9.5 14.3-3.5 15.8-10.4m8.2 60.8-1.3-1.3c1.8.3 3.9-1 5.1-1.8-2.4 1.4-5.4.6-7.5-1.1l1.1 1.8c-5.6-1.5-5-10.5-8.3-13.4-2.8-2.5-6.1-1.2-10.4-4.5s-6-11.9-14-17.3c10.8-3.1 14.4 16.4 24.7 16.4 5.2 0 7.9-4.3 12.5-5.1 3.2-.5 6.8-.2 7.4 2.7.3 1.9.1 3.8-.6 5.5 1.1-1.3 1.6-3 1.6-4.7 0-5.9-5.9-5.8-7.9-5.6-4.6.4-5.7 3.3-11.4 2-7.2-1.7-8.7-14.2-17.1-15 4.4-3.7 8.6 3 12.6 2.9 2.9 0 3.9-2.4 5.8-7 2.2-5.4 5.2-1 7.7 1.3s6.1 1.4 8.2-.4c-.6 1.7-2.5 1.7-1.8 2.8.3.5.8.3 1.4-.2 2.8-2.6 3.4-9.3.4-10.9 2.3 10.7-7.1 8.2-6.9 6.7 1.7.6 4.7-1.2 3.5-1.2-8.2 0-6.9-4-11.4-3.6 0 0-3.7-.2-6 5.8-1.4 3.8-5.3-1.5-9.8 0 3-4 5.3-.7 7.8-2.3s5.4-6.9 11.3-4.3l3.2-2.8-2.1 3.4c6.2 4.1 9.7 3.7 9.1-3.9 8 4.6 3.6 15.3-2.4 15.2-3.6 0-4.8-1.8-6.8-2.6-1.4-.5-2.6.6-4 2l5.8 2.1-6.9-1c-2.1 2.1-5.2 3.9-9.7 1.9l.9 1.6h24.3l-16.7 7.7c4.5.9 10-4.6 16.2-.8 6.1 3.6 3.3 11.9.8 11.9-2.3 0 2.1-7.4-4.1-7.3-2.3.1-4.1 1.9-6.3 3.7l2 5-3.3-4.1c-1.8 1.3-3.7 2.3-5.9 2l11.5 6.8h-7.9c-.2 1.7.1 3.4.9 4.9l.8-.3c.6 1.3 4.1 3.4 9.1 2.5-1.9 7.2000002-12.2 5.1-14.2 3.1l.1 2.6c-4.5-11.2-8-11.9-14.8-11.9l15.8 15.9000002-3.8-.8c1.1 4.4-4.2 12.2-8 12.7-1.5.2 2.7-2.9 2.7-7.4s-5-5.8-7.1-7.6c-3.8-3.2000002-5.4-9.7000002-6.9-12.2000002 2.7 1.4 5.9 6.7 8.3 9.3s7.4 4.7000002 7.4 8.8000002c.1 2.2-.5 4.4-1.7 6.2 1.6 0 6.5-8.6 1.8-12.7000002-2.3-2-3.8-3.3-6.1-5.3-3.1-2.6-5.8-5.7-8.1-9-4.3-6.4-11.3-11-8-16.1-5 8 4.2 14 5.2 20.2s4.4 13.0000002 8 13.9000002c-.6.2-1.2.2-1.8.2l-1-.1c-5.8-1.1-10.7-20.3000002-10.7-17.5000002 0 5 8.8 27.9000002 8.8 27.9000002l-8-5.1c-1.3 5.2 4.5 5.5 3.9 10.2-.7 5.4-6.9 4.9-6.8 3.7.1-.8 2.5 0 2.5-1.2s-3.9-2-5.5-3.9c-1-1.2-1.9-2.1-2.2-6.6l-2.4 3.2s3-7.7 3.4-9.7-4.2-2.2-5.6-6.2000002l-.9 19.6000002-5.9-8c-1.1 8.8-13.5 8.2-14.3 7.3 9-6.7 4.6-9.6 2.4-15.3l-4.8 2.8 4.1-4.7000002c-.3-1.2-.4-2.4-.3-3.6.5-6.9 10.6-6.3 4.5-13.2l-16.3 26.2000002 2.1-14.1000002c-9.7 3.5-6.3 4-9.1 10.3000002-2.3 5.2-6.9 3.8-8.2 1.6-2-3.2.5-5.6 3.1-5.4 1.6-1.3-3-3.4000002-1.2-7.6000002 2.7-6.1 10.3-3.4 14.2-8.5l-9.5 1 10.6-2.9c.9-2.3 1.3-4.8 1.2-7.3l-20.3 11.2 6.2-10.2c-11.3 9.3-14-2.4-19.5-1.4 1.4-6.3 6.6-2.7 9-2.7s5.7-4.1 6.9-5l-12.1-6.5h30.2c2.3 0 3.5-.8 2.4-2.1-1.4-1.7-7 .3-13.3.8-3 .3-6-.8-8.1-3l-5.2 1.8 4.5-2.4c-3.1-3.1-5.5-6.2-12.8-1.8-2.3-5.9 3.2-10.9 8.1-11 7-.2 8.3 8 13.7 5.1l-9.2-10.8 15 7.4-1.9-5.7-6.5-1.7 6.3.5c-1.8-5.9-8.3-4.8-11-7.7-5.9-6.2.5-14.2 5.3-11.9-3.3 7 2.8 10.1 7.9 9.1l-2.4-8.2 19.4 19.6c-4.5 3.4-9.4.4-11.8-6.9-2.3-7-7.1.9-14.5-1.8 3.9 1.4 8.9-.6 10 7.7.7 5.5 3.4 10.5 9.4 9.1-2.3 3.4-7.8-.8-11.4 4.2 6.1-.7 8.3 4.4 12.6 7.3-5.2-3.6-1.5-7.3-7.9-8.2 2.3.3 4.2.5 6.4-.2s3.5-2.4 3.3-4.7c1.6.4 2.5 2.1 2.1 3.7-.1.4-.3.8-.6 1.1-1.1 1.5-3.4 2.3-3.5 3.6 0 0 .1-.2 1.6-1-1.2 1.6-.4 3.7.9 5.1-.1-.9-.1-2.4.5-2.7 1 2.3 3.2 3.5 4.6 3.1-2.6-2.8-.8-5.1-.8-5.1-1.1 0-2.3 1.6-2.3 1.6-.4-1.6.4-3.2 2-3.7-.1-.3-.1-.6 0-.8 2.2 2.2 6.2 2.1 7.3 2.9 0 0-5.8-.8-5.1 2.3.7 3 9.7 1 8.5-8.1 0 0 1.6-.2 2.1.4s-.1 2.2-.1 2.2l1.2.5s-1.2 4.5-.9 5.4c.2.5 2.2.5 2.5.6s.2.5 0 .5h-3.3c-.5 0-1.9 1.7-.6 2 2.2.6 4.5.6 6.7 0 0 0-.3 1.3-3.4 1.3-1.5.1-2.9-.1-4.3-.5-.7 1.9 3.4 3.9 3.8 4s.8.1 1.2 0c.1-.1 3-2.4 3-2.4l-.9 1.4c3.8-.9 3.3-2.8 1.9-3.2 0-.9 2.2-.7 2.1.9-.1 2.1-5.5 3.3-6.2 4.7-.4.9.7 3.9 1.6 4.2 1.4.3 2.8.2 4.1-.3.3-.2 3.2-5.6 3.2-6.9s-3-7.9-3-7.9c.6-1.7 3.1-1.2 5.4-2.7-3.8 3.9-1.2 4.4 1.6 4.6-2.1 1.8-3.6 2.9-2.7 5.7 12.2 2.7 9.8 16.8 18.6 19.8-7 1.1-12.7-7.8-13.4-11.9-.3 4.3 1.3 8.2 4.7 11.7 2.9 3 7.9 2.6 12 2.6 7.2.1 4.8 9.4 10.8 11.5 2.1.7 4.2 1 6.3 1m-45.8-61.9c-5 2.3-4-3.7-2.6-5.2 1.5 2 3.5 3.7 5.8 4.8-4.5-7.4.6-7.2-.3-17-.4-4.9-3.1-6.6-3-11.10000002.1-5.4 8.1-6.9 8.2-4.8.1 1.5-5.8 1.7-5.9 7.3-.1 5.30000002 5.8 6.50000002 5.7 11.70000002-.1 3.3-6.1 6.4-2.4 12.7l8.6-24.10000002-6.5 7.40000002c-2.1-2.6-3.8-2.8-3.8-7.50000002 0-4.7 5.2-5.4 5.2-7.5 0-1.8-2.6-2-4.5-2.1-3-.1-8.2 2.4-8.2 7.9 0 5.50000002 3.7 8.20000002 0 13.30000002l-3.2-4.8 2.3 6.1c-1.5 2-2.2 4.5-2.1 7 .1 8.6 7.2 9.4 6.7 5.9m0-20.5c3.1 10-4.1 10-4.1 14.9-1.2-5.8 5.8-9.6 4.1-14.9m14.2 35.2c.5 1.1 2.6-1.4 5.8-.4-1.5-1.1-6.1-1-5.8.4m-3.5-20c-1.2 3.2-4.4 4-6 6.8.9 0 5.5-1.8 7.2-4.7s.1-10.4 5.5-12.4c5.6-2.1 11.5-5.2 4.9-12.00000002 10.2 2.60000002 4.5 13.50000002 3.3 15.00000002s-4.9 4.5-4.9 9.2c0 3.5-3.2 7.6-5.7 8.1 2.6 1.1 6.5-4.9 6.5-4.9l12.8-16.4-7.3 3.8s2-1.7 2-7.5c0-8.10000002-8.7-9.60000002-8.7-7.00000002.1 1.7 3 2.80000002 3.1 5.60000002s-3.8 4.3-6.8 5.2l-1.3-4.5v5.1c-5.1 2.5-3.4 7.4-4.6 10.6m7.8-4.2c2.7-3.9 5.2-3.3 6.5-7.5-1.8 3.3-6.4 4-8.3 6.8-3.2 4.9 1.1 11.8-5.7 13.8 8.5.3 4.4-9.7 7.5-13.1m8.2 10.5c2.4-.6 3.9 1.5 5.8.9.5-.1.9-.5.8-1 0-.3-.3-.6-.6-.8 0 0 3.2-3.3 2.2-5.1-2.6 5.3-7.7 5.1-8.2 6m-14.9 17.4c.2 1.5 2.9-1.6 7.9.5-1.7-2.5-8.3-2.7-7.9-.5m-35.7-10.5c-10 1.7-4.2-10.4-12-10.9 4.2 2 2.5 4.7 3.1 8.8.8 5 7.1 5.7 8.9 2.1m26.1 21c-.6.4-2.1.9-3.3 1.7-.1.2-.3.9-.6 1.1 1.3.1 3.8-1.6 3.9-2.8m32.8-5.7c2 .2 8.4-7.2 6.2-8.1s-2 6.5-6.2 8.1m-76.1-28.7c-8.9-1.5-6.7-6.5-5.1-9.3-5.4-.5-5.6 11.6 5.1 9.3m-22.4 23.4s5-4.8 9.3-.5c-3.5-3.5-7.8-4.4-9.3.5m28.5 3.3c-5.6 1-13.8-6.3-15.3-8-.9-1.1-1.8-2.1-3.5-2.4-.1 0-.1.1-.1.3s.1.6-.1.7-.4 0-1-.5c-.8-.6-1.8-.9-2.7-.7-.9.1-1.8.4-2.6.9-.6.5-.9 1-.6 1.5.3.8 1.4.2 2.7.1 1.1.1 2.2.3 3.2.8.8.2 1.4 1.2 2.2 2.1 4.1 4.4 12.2 7.6 17.8 5.2m.6 10.3c4-.2 7-1.4 7.2-4.4-1 1.1-3.3 2.6-7.4 2.8s-10.7-4.7-13.3 2.6c5.8-3.2 11.1 3.9 15 .5m-23.3 10.1c2.3 1.7 5.4-1.1 3.9-3.9-5.4 3-7.2-3.5-10.8.8 1.3-.4 2.6.4 5 2.1zm28.1-11.6c-1.9 3-5.2 5.9-9.2 5s-10.3-2.3-12.1 3.8c4.6-5.2 13.8 7.3 21.3-8.8m-17.4 35.5000002c-.5 3.1-1.9 2.4-2.2 2.3-.2-.1-.3-.4-.2-.7.2-.2.2-.6 0-.8 0 0 0 0-.1 0-.3-.3-2.6.4-2.2 2.6.3 1.4 1.6 2.2 3 2 1.9-.2 3.5-1.8 1.7-5.4m20.2-25.0000002c-.2-5.7 3.4-13.1 5-13.9-11.3 6-6.4 16.1-9.6 22-4.9 8.9-13.5 4-16.4 9.4-1.8 3.3 3 3.5 3 10.7000002 0-1.8-.6-6.0000002 2.7-7.7000002l-1.5.1c-.2-.9-1.2-1.4-2.1-1.2h-.1c1.7-2.9 8.5-.9 18-9 8.4-7.2 7.9-18.5 10.2-22.8l-2.3 2.2c-3.4 3.6-3.5 9.5-7.7 16.3.7-1.2.9-3 .8-6.1m16.4-5.8c-.4 0-.5.2-.5.2s.2.4.5.4c1.6.4 3.2.6 4.9.6s3.3-.2 4.9-.6c.3-.1.5-.3.5-.4s-.1-.2-.6-.2c-.1 0-3.2.1-4.8.1s-4.8-.1-4.9-.1m-1.9-10.2c.1 2.1 3.2 2.7 4.4 2.5-3.9-.9-3.6-3-2.3-3.5 0-.8-2.2-.6-2.1 1m-1.7 2.8c.1.8 3.7 2.2 3.7 2.2s-.9.7-2.8 0c1 1.7 3.3 1.6 3.3 1.6s-.2 1-2.8.3c.6 1.8 3.4 2.3 4.3 2s2-3.2 1.6-4.2c-2.2-1-4.7-1.7-7.3-1.9m-1.5 44.9000002c0-4.8-1.5-4.5-1.5-10.3000002 0-6.4 5.4-8.1 5.9-13.1.6-6.8-6.1-6.9-3.9-16.4-2.8 12.5 1.2 11.5 1.2 16s-7.1 5-7.1 12.9c0 4.6000002 2.8 5.9000002 2.8 10.8000002s-3.2 6.3-3.2 6.3c1.2.1 5.7-.8 5.8-6.2m3-2.3c4.4-5.5 1.6-2.8 3.2-10.2000002 1-4.6 2.4-4.4 3.8-8.2 1.3-3.2.7-10.5-4.4-13.9 2.3 3.5 2.8 7.9 1.4 11.9-1.1 3.9-2.7 4.3-4.4 8.7-.8 2.1-1 4.4-.6 6.6000002zm12.2-33.5000002c3.5 6.1-3.4 8.2-1.3 17.7 1.4 6.4 4.7 5.8 5 10.6000002.3 4.7-2.6 8-.5 11.2s6.2 4.5 4.9 8.5c2.1-3.9-1.9-7-3-11.3-.8-3.3 4.2-6.3 2.8-10.6000002-.7-1.8-1.5-3.5-2.4-5.2l-2.5-4.9c-3.1-6.5 2.9-11-3-16m2-7.2c-.1.3-1 .6-2.7 1.3-.3.5-.8 1-1.3 1.3 2 .5 4.4-1.5 4-2.6m-3.1-20.4c2.9 0 3.3-1.3 5.5-1.3s3 1.4 4.7 1.4 2.8-1.3 2-2.4c-1.1 1.8-3.1-.7-4.6-.7-2.3 0-3.2.9-4.7 1.7-1.7.8-3.2 0-2.6-.9-1.3 0-2.1-1.6.1-3.4-3.8.4-3.2 5.6-.4 5.6m-10.8-2.7c-2.2 0-4.7 2.4-5.1.8-.3-1.2 1.9-3.2 4.8-3.4-2.4-.7-6.5 1.6-7.2 4.1-.8.1-2.1-.9-2.1-.9.7 5.7 6 .7 8 .7 1.8 0 7.5 4.1 7.6-1-2.1 2.2-3.5-.3-6-.3m-18.4-20.8c.3-3.8 2.7-7.1 2.7-11 0-5.70000002-6.5-.3-7.5-2.70000002-2.6-6.3 16.6-9.5 16.4 1.70000002-.1 5.9-1.8 12.4 2.8 13.1l3.5-14.20000002 3.7 20.50000002c-3.3-4.2-10-2.5-11.4-9.2-1.2-5 5-17.30000002-8.6-16.30000002 15.7 4.8-8.7 18.00000002 5.8 26.50000002 3.9 2.3 5.2 6.3 3.5 8.1-.2-5.8-5.9-6.5-8-8.9-1.5-1.7-2.5-3.8-2.8-6l-5.4-2.6zm2.8-13.90000002c-1.2-4-7.7-2.2-6.4-.6.7.7 3.2-1.5 6.4.6m3.9 12.40000002c-6.4 12 15.7 6.5 12.8 16.8 5-12-15-5.8-12.8-16.8m11.7 32.2c-1.8-1-6.4-1.2-8.3-4.1 2.1-1 4.2-2.8 6-2.4 4.1.8 2.7 5.9 2.3 6.5m-3-5.7c-2.5-.5-3.3 3-1.4 3.8.3-1.4.7-2.7 1.4-3.8m1.5.8c-.3 1.2-.8 2.3-1.5 3.3 1.5.6 3.4-1.9 1.5-3.3m16.5-1.8c1.8-.4 4 1.5 6.2 2.5-2 2.9-6.7 3.1-8.6 4.2-.4-.7-1.8-5.9 2.4-6.7m2.2 4.6c1.9-.7 1.1-4.4-1.4-3.9.6 1.3 1.1 2.6 1.4 3.9m-1.5.5c-.7-1-1.2-2.2-1.6-3.4-1.8 1.4 0 4 1.6 3.4"/></g></svg>