<svg fill="none" height="22" viewBox="0 0 157 22" width="157" xmlns="http://www.w3.org/2000/svg"><g fill="#fff"><path d="m49.54 13.56c0 1.1333-.44 2.04-1.32 2.72s-1.8933 1.02-3.04 1.02-2.4533-.2333-3.92-.7c-.0133-.2533-.02-.66-.02-1.22s.06-1.3667.18-2.42c.36 0 .7.0333 1.02.1v.12c0 1.9467.9067 2.92 2.72 2.92.6267 0 1.1333-.1533 1.52-.46.3867-.32.58-.7533.58-1.3s-.2067-1.0267-.62-1.44c-.4-.4133-.8933-.76-1.48-1.04-.5733-.2933-1.1533-.6-1.74-.92-.5867-.3333-1.0867-.7867-1.5-1.36-.4-.57333-.6-1.25333-.6-2.04 0-1.06667.3933-1.9 1.18-2.5.7867-.61333 1.7533-.92 2.9-.92s2.3333.19333 3.56.58c0 .93333-.0867 1.96-.26 3.08-.28 0-.5533-.02-.82-.06-.2267-1.62667-1.0267-2.44-2.4-2.44-.6 0-1.0867.14667-1.46.44s-.56.7-.56 1.22c0 .50667.2067.96.62 1.36.4267.4.9333.74 1.52 1.02.6.28 1.1933.58 1.78.9.6.3067 1.1067.7467 1.52 1.32.4267.56.64 1.2333.64 2.02zm4.2606 1c0 .36.1.6467.3.86.2134.2133.5334.32.96.32.44 0 .8334-.1933 1.18-.58v-2.6l-.88.24c-1.04.2933-1.56.88-1.56 1.76zm4.5 2.76c-.4533 0-.8666-.0933-1.24-.28-.36-.2-.6066-.48-.74-.84-.64.7467-1.4066 1.12-2.3 1.12-.88 0-1.5733-.24-2.08-.72-.5066-.48-.76-1.0933-.76-1.84s.24-1.34.72-1.78 1.2067-.76 2.18-.96l2.16-.44v-.72c0-.5067-.1266-.87333-.38-1.1-.24-.24-.6866-.36-1.34-.36-.64 0-1.38.14667-2.22.44l-.5-.74c1.12-.97333 2.4134-1.46 3.88-1.46 1 0 1.7534.27333 2.26.82.5067.54667.76 1.32.76 2.32v3.98c0 .68.2134 1.02.64 1.02.0667 0 .3134-.04.74-.12l.2.52c-.6133.76-1.2733 1.14-1.98 1.14zm2.1533-8.52c-.0533-.24-.08-.42667-.08-.56 0-.14667.0067-.26.02-.34h4.98c.0533.16.08.46.08.9-.5733.02667-.98.08667-1.22.18l2.16 6.8c.0533-.3733.2-.9133.44-1.62l1.46-4.08c.08-.22667.12-.41333.12-.56s-.0267-.26-.08-.34c-.12-.18667-.4333-.31333-.94-.38-.0667-.2-.1-.38-.1-.54s0-.28 0-.36h4.18c.0133.29333-.0467.59333-.18.9-.48.02667-.88.11333-1.2.26l-3.26 8.12h-2.08l-2.88-7.22c-.1333-.37333-.2933-.64-.48-.8s-.5-.28-.94-.36zm10.6774 0c-.0534-.24-.08-.42667-.08-.56 0-.14667.0066-.26.02-.34h4.98c.0533.16.08.46.08.9-.5734.02667-.98.08667-1.22.18l2.16 6.8c.0533-.3733.2-.9133.44-1.62l1.46-4.08c.08-.22667.12-.41333.12-.56s-.0267-.26-.08-.34c-.12-.18667-.4334-.31333-.94-.38-.0667-.2-.1-.38-.1-.54s0-.28 0-.36h4.18c.0133.29333-.0467.59333-.18.9-.48.02667-.88.11333-1.2.26l-3.26 8.12h-2.08l-2.88-7.22c-.1334-.37333-.2934-.64-.48-.8-.1867-.16-.5-.28-.94-.36zm13.0773 12.94h-.38c-.1733-.52-.26-.9733-.26-1.36s.0133-.6867.04-.9h.56c.6 0 1.06-.1067 1.38-.32s.62-.62.9-1.22l.08-.16-3.24-7.82c-.1467-.37333-.3133-.64-.5-.8s-.4933-.28-.92-.36c-.0533-.24-.08-.42667-.08-.56 0-.14667.0067-.26.02-.34h4.98c.0533.16.08.46.08.9-.5733.02667-.98.08-1.22.16l2.02 6.44c.1067-.4267.2267-.8133.36-1.16l1.66-4.16c.0933-.24.14-.43333.14-.58s-.0267-.26-.08-.34c-.1333-.17333-.4533-.29333-.96-.36-.0533-.24-.08-.42667-.08-.56 0-.14667.0067-.26.02-.34h3.9c.0133.29333-.0467.59333-.18.9-.32.05333-.6133.12-.88.2l-4.48 10.02c-.4.8933-.8267 1.5667-1.28 2.02-.4533.4667-.9867.7-1.6.7zm24.4264-17.38c.067.57333.1 1.12667.1 1.66s-.013 1.02667-.04 1.48c-.173.05333-.46.08-.86.08-.067-.81333-.233-1.38-.5-1.7s-.687-.48-1.26-.48h-1.42v10.48c.467.1733.987.26 1.56.26v.28c0 .1333-.02.3467-.06.64h-5.58c0-.08 0-.2 0-.36 0-.1733.033-.36.1-.56.52-.0667.887-.1733 1.1-.32.227-.1467.34-.4067.34-.78v-9.64h-1.4c-.587 0-1.0133.16-1.28.48s-.4267.88667-.48 1.7c-.4133 0-.7067-.02667-.88-.08-.04-.42667-.06-.9-.06-1.42s.04-1.09333.12-1.72zm2.401 10.66v-5.6c-.213-.02667-.44-.04-.68-.04-.227 0-.453.00667-.68.02.027-.4.073-.69333.14-.88 1.107-.4 2.26-.66 3.46-.78.133.82667.213 1.74.24 2.74.333-.84.807-1.52 1.42-2.04.627-.53333 1.32-.8 2.08-.8.067.24.1.54667.1.92 0 .36-.067.82667-.2 1.4-2.027 0-3.16.7733-3.4 2.32v3.48c.56.2133 1.18.34 1.86.38v.34c0 .1467-.027.34-.08.58h-5.62c-.013-.0933-.02-.22-.02-.38 0-.1733.033-.3533.1-.54.44-.0667.76-.1733.96-.32.213-.16.32-.4267.32-.8zm9.361-.46c0 .36.1.6467.3.86.214.2133.534.32.96.32.44 0 .834-.1933 1.18-.58v-2.6l-.88.24c-1.04.2933-1.56.88-1.56 1.76zm4.5 2.76c-.453 0-.866-.0933-1.24-.28-.36-.2-.606-.48-.74-.84-.64.7467-1.406 1.12-2.3 1.12-.88 0-1.573-.24-2.08-.72-.506-.48-.76-1.0933-.76-1.84s.24-1.34.72-1.78 1.207-.76 2.18-.96l2.16-.44v-.72c0-.5067-.126-.87333-.38-1.1-.24-.24-.686-.36-1.34-.36-.64 0-1.38.14667-2.22.44l-.5-.74c1.12-.97333 2.414-1.46 3.88-1.46 1 0 1.754.27333 2.26.82.507.54667.76 1.32.76 2.32v3.98c0 .68.214 1.02.64 1.02.067 0 .314-.04.74-.12l.2.52c-.613.76-1.273 1.14-1.98 1.14zm8.034-8.34c-.854 0-1.487.26-1.9.78-.414.5067-.62 1.3867-.62 2.64 0 2.24.706 3.36 2.12 3.36.546 0 1.033-.1467 1.46-.44v-6.24c-.36-.06667-.714-.1-1.06-.1zm5.12 7.2c-.64.76-1.354 1.14-2.14 1.14-.787 0-1.367-.3267-1.74-.98-.76.64-1.627.96-2.6.96-.96 0-1.834-.4-2.62-1.2-.774-.8-1.16-1.96-1.16-3.48s.533-2.72667 1.6-3.62c1.066-.90667 2.426-1.36 4.08-1.36.226 0 .4.00667.52.02v-3.3c-.134-.01333-.314-.02-.54-.02-.227 0-.5.00667-.82.02.026-.41333.073-.71333.14-.9 1.16-.41333 2.393-.66667 3.7-.76v12.06c0 .68.2 1.02.6 1.02.093 0 .34-.04.74-.12zm5.916-7.32c-.44 0-.847.19333-1.22.58-.36.38667-.6.9933-.72 1.82l1.86-.14 1.42-.04c-.04-1.48-.487-2.22-1.34-2.22zm-2.02 3.3v.2c0 2.2667.86 3.4 2.58 3.4.907 0 1.86-.24 2.86-.72l.34.58c-1.093 1.1333-2.4 1.7-3.92 1.7-.693 0-1.373-.1533-2.04-.46-.653-.32-1.227-.8467-1.72-1.58-.48-.7333-.72-1.6-.72-2.6 0-1.5467.48-2.77333 1.44-3.68.973-.90667 2.113-1.36 3.42-1.36 1.013 0 1.867.31333 2.56.94.707.62667 1.06 1.6067 1.06 2.94-.08.24-.187.4533-.32.64zm8.595 2.86v-5.6c-.213-.02667-.44-.04-.68-.04-.226 0-.453.00667-.68.02.027-.4.074-.69333.14-.88 1.107-.4 2.26-.66 3.46-.78.134.82667.214 1.74.24 2.74.334-.84.807-1.52 1.42-2.04.627-.53333 1.32-.8 2.08-.8.067.24.1.54667.1.92 0 .36-.066.82667-.2 1.4-2.026 0-3.16.7733-3.4 2.32v3.48c.56.2133 1.18.34 1.86.38v.34c0 .1467-.026.34-.08.58h-5.62c-.013-.0933-.02-.22-.02-.38 0-.1733.034-.3533.1-.54.44-.0667.76-.1733.96-.32.214-.16.32-.4267.32-.8z"/><path d="m1.41565 16.7058 8.09532-4.624c1.05193-.6009 2.35823-.1719 2.91753.9582.5594 1.1301.16 2.5334-.892 3.1343l-8.09527 4.624z"/><path d="m19.5715 8.95999c-.5594-1.13011-.16-2.53336.892-3.13424l8.0953-4.62402 2.0255 4.09247-8.0953 4.62403c-1.052.60087-2.3582.17187-2.9175-.95824z"/><path clip-rule="evenodd" d="m4.07391 9.60164c-.24166 2.05016-.14855 5.02366.33538 9.04256.15039 1.2489-.60254 2.3028-1.68171 2.3539-1.07916.0511-2.075916-.92-2.226304-2.1689-.50179053-4.1672-.650005-7.6177-.338792-10.25792.304048-2.57944 1.114216-4.90983 2.988416-5.98037s4.12566-.48894 6.28631.68267c2.21159 1.19923 4.79149 3.26072 7.72679 6.03789 2.8309 2.67833 5.0736 4.42403 6.7909 5.35523 1.7682.9588 2.5518.8309 2.8686.6499.3169-.181.8538-.8073 1.1026-2.9182.2416-2.0502.1485-5.02372-.3354-9.04261-.1504-1.24892.6025-2.30278 1.6817-2.35386 1.0792-.051084 2.0759.91996 2.2263 2.16888.5018 4.1672.65 7.61769.3388 10.25789-.304 2.5795-1.1142 4.9099-2.9884 5.9804s-4.1257.4889-6.2863-.6827c-2.2116-1.1992-4.7915-3.2607-7.7268-6.0379-2.8309-2.6783-5.0736-4.424-6.79088-5.3552-1.76819-.95881-2.55178-.8309-2.86864-.64991-.31685.18099-.85375.80733-1.10257 2.91825z" fill-rule="evenodd"/></g></svg>