<svg height="242" viewBox="0 0 1544 242" width="1544" xmlns="http://www.w3.org/2000/svg"><g fill="#fff" fill-rule="nonzero"><g><path d="m0 .5v12.4h176.3v30.4h-66.7v185.8h-42.9v12.4h55.3v-185.7h66.2v-55.3z"/><path d="m0 43.3h66.7v12.5h-66.7z"/></g><g transform="translate(262)"><path d="m43.3 229.1h-42.4v12.4h54.8v-81.2h29.4v-12.4h-41.8z"/><path d="m130.4 242h66.7l-52.8-89.6c23.4-8.5 46.8-31.4 46.8-71.7 0-47.8-33.4-80.2-83.2-80.2h-107v12.5h107.1c42.8 0 70.7 26.4 70.7 67.7 0 37.8-23.4 56.8-45.3 61.8l-8 2 49.8 85.2h-44.8z"/><path d="m140.9 80.7c.5-21.9-16.4-37.4-40.3-37.4h-57.3v74.2h57.3c23.9 0 40.3-15.4 40.3-36.8zm-85.2 24.4v-49.3h44.8c16.9 0 27.9 9.5 27.9 24.9 0 14.9-11 24.9-27.9 24.9h-44.8z"/></g><g transform="translate(513)"><path d="m51.7 229.6h-51.3v12.4h59.8l14.4-38.8h93.7v-12.5h-102.1z"/><path d="m182.7 242h64.8l-91.7-237.5-1.5-4h-65.2v12.4h56.8l83.1 216.7h-46.3z"/><path d="m75.1 160.3h89.1l-44.8-123zm44.4-86.6 26.9 74.2h-53.8z"/></g><path d="m950.69615 159.0424c-9.19692 17.3272-27.49395 28.9432-46.759076 28.9432-36.59406 0-63.603961-27.9752-63.603961-66.5016s26.525853-66.5016 63.603961-66.5016c18.781078 0 37.562156 11.616 46.759076 28.9432l2.90429 5.324 51.59956-25.0712-2.90429-5.324c-15.39274-27.9752-44.338834-58.8544-98.358636-58.8544-4.840484 0-9.680968.484-14.424643.968l1.452145 12.1c4.356436-.484 8.712872-.484 13.456546-.484 44.822882 0 69.89659 23.6192 84.418042 45.7864l-29.914192 14.4232c-12.10121-18.7792-32.818481-30.3952-54.50385-30.3952-43.854785 0-75.221122 33.2992-75.221122 78.6016s31.850385 78.6016 75.221122 78.6016c22.169417 0 42.886689-11.616 54.50385-30.3952l29.430144 14.4232c-19.749175 30.3952-47.727173 45.7864-83.933994 45.7864-4.356436 0-9.19692 0-13.456546-.484l-1.452145 12.1c4.840484.484 9.680968.968 14.424643.968 42.40264 0 76.189219-19.7472 97.874586-57.4024l3.38834-5.808-51.59956-25.0712z"/><path d="m1254 55.8v-55.3h-167.8v12.4h155.8v30.4h-113v60.8h94.1v30.4h-94.1v64.2h113v30.4h-155.8v12.4h167.8v-54.8h-113.1v-39.3h94.2v-55.3h-94.2v-36.3z"/><g transform="translate(1347)"><path d="m43.4 229.1h-42.3v12.4h54.8v-81.2h29.4v-12.4h-41.9z"/><path d="m141 80.7c0-21.9-16.4-37.4-40.3-37.4h-57.3v74.2h57.3c23.9 0 40.3-15.4 40.3-36.8zm-85.1 24.4v-49.3h44.8c16.9 0 27.9 9.5 27.9 24.9 0 14.9-11 24.9-27.9 24.9h-44.8z"/><path d="m130.1 242h66.7l-52.8-89.6c23.4-8.5 46.8-31.4 46.8-71.7 0-47.8-33.4-80.2-83.2-80.2h-107.1v12.5h107.1c42.8 0 70.7 26.4 70.7 67.7 0 37.8-23.4 56.8-45.3 61.8l-8 2 50.3 85.2h-45.3v12.3z"/></g></g></svg>