<svg fill="#1a1a1a" height="24" viewBox="0 -960 960 960" width="24" xmlns="http://www.w3.org/2000/svg"><path d="m240-522-40 22q-14 8-30 4t-24-18l-80-140q-8-14-4-30t18-24l230-132h70q9 0 14.5 5.5t5.5 14.5v20q0 33 23.5 56.5t56.5 23.5q33 0 56.5-23.5t23.5-56.5v-20q0-9 5.5-14.5t14.5-5.5h70l230 132q14 8 18 24t-4 30l-80 140q-8 14-23.5 17.5t-30.5-4.5l-40-20v361q0 17-11.5 28.5t-28.5 11.5h-400q-17 0-28.5-11.5t-11.5-28.5zm80-134v456h320v-456l124 68 42-70-172-100q-15 51-56.5 84.5t-97.5 33.5q-56 0-97.5-33.5t-56.5-84.5l-172 100 42 70z"/></svg>