<svg height="20" viewBox="0 0 115 20" width="115" xmlns="http://www.w3.org/2000/svg" xmlns:xlink="http://www.w3.org/1999/xlink"><linearGradient id="a" x1="50%" x2="50%" y1="0%" y2="100%"><stop offset="0" stop-color="#f452ff"/><stop offset="1" stop-color="#832bc1"/></linearGradient><g fill="none" fill-rule="evenodd"><g><path d="m19.1784205 16.9286854c-.1862847.4731755-.6161258 1.1394139-1.225702 1.6087053-.3519304.2710497-.7720993.5301424-1.3492317.7011192-.615212.1823245-1.3729934.2439371-2.3161457.2439371h-8.62370534c-.94307616 0-1.70085761-.0616126-2.31614569-.2439371-.57713245-.1709768-.99722517-.4300695-1.34923179-.7011192-.6095-.4693675-1.03941722-1.1355298-1.22570199-1.6087053-.3752351-.9533576-.37904304-2.035043-.37904304-2.7162847v-8.62378149c0-.68124173.00380794-1.76292716.37904304-2.71628477.18628477-.4731755.61612583-1.13941391 1.22570199-1.6087053.35193046-.27104967.77209934-.53014238 1.34923179-.70111921.61521192-.1823245 1.37299337-.24393708 2.31614569-.24393708h8.62378144c.9430762 0 1.7008576.06161258 2.3161457.24393708.5771325.17097683.9972252.4301457 1.3492318.70111921.6095.46936755 1.0394172 1.1355298 1.225702 1.6087053.3752351.95335761.379043 2.03504304.379043 2.71628477v8.62378149c0 .6811655-.0038841 1.762851-.3791192 2.7162847z" fill="url(#a)"/><path d="m19.1784205 16.9286854c-.1862847.4731755-.6161258 1.1394139-1.225702 1.6087053-.3519304.2710497-.7720993.5301424-1.3492317.7011192-.615212.1823245-1.3729934.2439371-2.3161457.2439371h-8.62370534c-.94307616 0-1.70085761-.0616126-2.31614569-.2439371-.57713245-.1709768-.99722517-.4300695-1.34923179-.7011192-.6095-.4693675-1.03941722-1.1355298-1.22570199-1.6087053-.3752351-.9533576-.37904304-2.035043-.37904304-2.7162847v-8.62378149c0-.68124173.00380794-1.76292716.37904304-2.71628477.18628477-.4731755.61612583-1.13941391 1.22570199-1.6087053.35193046-.27104967.77209934-.53014238 1.34923179-.70111921.61521192-.1823245 1.37299337-.24393708 2.31614569-.24393708h8.62378144c.9430762 0 1.7008576.06161258 2.3161457.24393708.5771325.17097683.9972252.4301457 1.3492318.70111921.6095.46936755 1.0394172 1.1355298 1.225702 1.6087053.3752351.95335761.379043 2.03504304.379043 2.71628477v8.62378149c0 .6811655-.0038841 1.762851-.3791192 2.7162847z"/><path d="m8.31899338 9.0488245c-.28757616-.30341722-.79266225-.49792715-1.3889106-.49792715-.5963245 0-1.10141059.19450993-1.38898675.49792715-.15003312.15833444-.22939073.32062914-.25437086.55184769-.04843709.44773841-.02124835.83325501.03122516 1.44960931.04996027.5873377.14485431 1.3705562.26868874 2.168245.0881159.5676887.1597053.8740761.22489735 1.0934901.10570861.355586.50074504.666543 1.11854636.666543.61772517 0 1.01276159-.3110331 1.1184702-.666543.06519205-.219414.13678146-.5258014.22489735-1.0934901.12383444-.7976888.21872848-1.5809073.26868874-2.168245.05247351-.6164305.07966225-1.0019471.03122517-1.44960931-.02498013-.23114239-.10433775-.39351325-.25437086-.55184769zm-2.95580464-2.70158609c0 .86615563.70218543 1.56834106 1.56834106 1.56834106.86623179 0 1.56841722-.70218543 1.56841722-1.56834106 0-.86623179-.70218543-1.56841722-1.56841722-1.56841722-.86615563 0-1.56834106.70218543-1.56834106 1.56841722zm1.54892053-6.18946516c-3.66804304.01046185-6.67365563 2.98622013-6.71904636 6.6540347-.03686092 2.97118874 1.85980133 5.51276485 4.50822848 6.44434105.06427815.0226192.12954636-.0307682.11941722-.0981689-.03472848-.2306854-.06747682-.4625132-.0975596-.6904569-.01066226-.0805762-.06199338-.1500331-.13640067-.182553-2.09330463-.9145166-3.55502317-3.01391391-3.53156622-5.44574503.03076821-3.19136424 2.63677483-5.79310596 5.82813907-5.81892385 3.26257281-.02635099 5.92516561 2.62001987 5.92516561 5.87657616 0 2.40746027-1.4553212 4.48111592-3.53232786 5.38832122-.07440728.0325198-.12543377.1022053-.13601987.1827053-.03008278.2278675-.06283112.4596192-.09748344.6900761-.0102053.0674007.05506291.1207881.11934106.0982451 2.62314241-.9226656 4.50876161-3.42471527 4.50876161-6.35927156-.0001523-3.72257285-3.0337914-6.74981457-6.75864903-6.73918039zm-.12177814 3.09170026c2.07936755-.0805 3.79659937 1.58768543 3.79659937 3.64946026 0 1.0485563-.4442351 1.99521193-1.15426494 2.66190729-.06024172.05650993-.09260927.13678146-.08796357.21926159.01416556.25079135.00898675.49449995-.00769206.76973845-.00449337.073341.07775828.1201788.13845696.0788245 1.19066891-.81368216 1.97381121-2.18187752 1.97381121-3.72973183 0-2.54858278-2.12285426-4.61073841-4.69314234-4.51112251-2.38864901.09260927-4.30503642 2.06200331-4.33565232 4.45232781-.02010596 1.57207285.76783444 2.96479139 1.97381126 3.78867883.06054636.0413543.14256954-.0055596.13807616-.0788245-.01675497-.2753908-.02185761-.5190994-.00776821-.76989075.00464569-.08240397-.0276457-.1626755-.0877351-.21910927-.73219205-.6874106-1.18183444-1.67252649-1.15319868-2.76007616.05041722-1.91387417 1.59347351-3.47734106 3.50666226-3.55144371z" fill="#fff" fill-rule="nonzero" transform="translate(3.046358 2.284768)"/></g><g fill="#000" fill-rule="nonzero" transform="translate(23.609272 4.569536)"><path d="m6.26254967 7.4805596h-3.60490729l-.86569867 2.5561987h-1.5269106l3.41450994-9.45810267h1.58639072l3.41450994 9.45810267h-1.55295696zm-3.23157616-1.17962583h2.85748344l-1.40863576-4.14929139h-.03945033z"/><path d="m16.0546093 6.5895c0 2.14273179-1.1468775 3.5193808-2.8775133 3.5193808-.9824503 0-1.7626986-.43951325-2.1694635-1.20635762h-.0327484v3.41527152h-1.41533774v-9.17623841h1.36994704v1.14687748h.0260463c.3934371-.74003642 1.232404-1.219 2.19551-1.219 1.7499801 0 2.9035596 1.383351 2.9035596 3.52006623zm-1.4547881 0c0-1.39599338-.7214537-2.31378477-1.8221788-2.31378477-1.0813808 0-1.8087749.93713576-1.8087749 2.31378477 0 1.38929139.7273941 2.31972517 1.8087749 2.31972517 1.1008013 0 1.8221788-.91101325 1.8221788-2.31972517z"/><path d="m23.6436954 6.5895c0 2.14273179-1.1468775 3.5193808-2.8775133 3.5193808-.9824503 0-1.7626225-.43951325-2.1694636-1.20635762h-.0327483v3.41527152h-1.4153377v-9.17623841h1.369947v1.14687748h.0260463c.3934371-.74003642 1.232404-1.219 2.19551-1.219 1.7500563 0 2.9035596 1.383351 2.9035596 3.52006623zm-1.454712 0c0-1.39599338-.7214536-2.31378477-1.8221788-2.31378477-1.0813808 0-1.8087748.93713576-1.8087748 2.31378477 0 1.38929139.727394 2.31972517 1.8087748 2.31972517 1.1007252 0 1.8221788-.91101325 1.8221788-2.31972517z"/><path d="m24.7898113.57865563h1.4160993v9.45810267h-1.4160993z"/><path d="m33.5748974 8.01153974c-.1903974 1.25174834-1.4093974 2.11074506-2.9689802 2.11074506-2.0058742 0-3.2509205-1.34390069-3.2509205-3.50003646 0-2.16276159 1.2517483-3.56545695 3.1913642-3.56545695 1.9077053 0 3.107361 1.31046689 3.107361 3.40110596v.48490397h-4.8699835v.08552649c0 1.17954967.740798 1.95309603 1.854851 1.95309603.7861126 0 1.4026954-.37333112 1.5923311-.96980795h1.3439769zm-4.7845332-2.05789073h3.4472583c-.0327483-1.05533444-.7080497-1.75005629-1.6912616-1.75005629-.9765099 0-1.683798.70804966-1.7559967 1.75005629z"/><path d="m41.1922384.57865563c1.8348212 0 3.1133013 1.26507616 3.1133013 3.10736093 0 1.84822516-1.3045265 3.11924172-3.1593774 3.11924172h-2.0319206v3.23157612h-1.4681159v-9.45817877zm-2.0779967 4.99496026h1.6845596c1.2777186 0 2.0051126-.68870529 2.0051126-1.88089735 0-1.19295364-.727394-1.87533775-1.9984106-1.87533775h-1.6912616z"/><path d="m44.8224305 6.5895c0-2.16946358 1.2777185-3.53278477 3.2701887-3.53278477 1.9991722 0 3.2709503 1.36324503 3.2709503 3.53278477 0 2.17540397-1.2650761 3.5327848-3.2709503 3.5327848-2.0051126 0-3.2701887-1.35730467-3.2701887-3.5327848zm5.0990695 0c0-1.48822185-.6820033-2.36656291-1.8288808-2.36656291s-1.8288808.88504304-1.8288808 2.36656291c0 1.49416225.6820033 2.36580132 1.8288808 2.36580132s1.8288808-.87156291 1.8288808-2.36580132z"/><path d="m52.3572914 6.5895c0-2.1300894 1.1728477-3.52014238 2.8834536-3.52014238.9899139 0 1.7700861.45885761 2.1627616 1.219h.026808v-3.70977815h1.4220397v9.45810263h-1.376649v-1.17284766h-.0260464c-.4060794.78611258-1.1929536 1.24504636-2.1955099 1.24504636-1.7240099 0-2.8968576-1.3892914-2.8968576-3.5193808zm1.4480099 0c0 1.41533775.7214537 2.31972517 1.8221788 2.31972517 1.0880828 0 1.8154769-.9177914 1.8154769-2.31972517 0-1.39005298-.7273941-2.31378477-1.8154769-2.31378477-1.1007251.00007616-1.8221788.91108941-1.8221788 2.31378477z"/><path d="m64.8751556 5.5140596c-.1242152-.72739404-.6946457-1.27101655-1.6250794-1.27101655-1.0880828 0-1.8095365.9110894-1.8095365 2.34653311 0 1.46811589.7281557 2.35247351 1.8221788 2.35247351.8783411 0 1.4554736-.43882782 1.6124371-1.23834437h1.3632451c-.1569636 1.44808609-1.3171689 2.4186556-2.9883245 2.4186556-1.9664239 0-3.2509206-1.34390064-3.2509206-3.53278474 0-2.14349338 1.2844206-3.53278477 3.2375166-3.53278477 1.7693245 0 2.8708112 1.11412914 2.9890861 2.45734437h-1.3506027z"/><path d="m67.1056225 8.07703642c0-1.20559602.9237318-1.93375165 2.5622152-2.03192053l1.8875994-.10487086v-.5243543c0-.76676821-.5042484-1.19965563-1.3625596-1.19965563-.7868742 0-1.3372749.37409271-1.4487715.97056954h-1.3238709c.0394503-1.24573179 1.198894-2.13008941 2.8113311-2.13008941 1.6451855 0 2.7332682.89768543 2.7332682 2.25430464v4.72573843h-1.356543v-1.13423512h-.0327484c-.400139.76676821-1.2717781 1.25243382-2.1761655 1.25243382-1.3499172.0000761-2.293755-.83889077-2.293755-2.07792058zm4.4498146-.62252317v-.5310563l-1.697202.10487086c-.8456689.05277815-1.3238709.41948345-1.3238709 1.00925828 0 .60317881.498308.9966159 1.2584504.9966159.9898377 0 1.7626225-.68200331 1.7626225-1.57968874z"/><path d="m76.9155795 3.06349338c1.5276722 0 2.6216953.84490728 2.6544437 2.06390728h-1.3305729c-.0587185-.6091192-.5763708-.98245033-1.363245-.98245033-.7667682 0-1.2777185.35330133-1.2777185.89098344 0 .41278146.3406589.68794371 1.0553344.86493709l1.1602053.26922186c1.3892914.33395695 1.9136457.84490728 1.9136457 1.85485099 0 1.24504636-1.1795497 2.09734109-2.8641093 2.09734109-1.625841 0-2.7198642-.83302652-2.8247351-2.09140069h1.4019338c.0989305.66189735.6292252 1.01596026 1.4882218 1.01596026.8456689 0 1.3766491-.34736093 1.3766491-.89768543 0-.42618543-.2625199-.65527152-.983212-.83896689l-1.2324039-.30120861c-1.2457318-.30197019-1.874957-.93782119-1.874957-1.89430132 0-1.219 1.0947848-2.05118874 2.7005199-2.05118874z"/><path d="m82.8029702 1.50939404v1.63216225h1.3112285v1.12083113h-1.3112285v3.80124503c0 .59053642.2625199.86569868.8389669.86569868.1443212 0 .3740927-.02010596.4655596-.03274835v1.11412912c-.1569636.0394504-.4715.0654206-.7861126.0654206-1.3959934 0-1.9404536-.52435435-1.9404536-1.86155303v-3.95226821h-1.0025563v-1.12075497h1.0025563v-1.63216225z"/><path d="m87.9199371 3.06349338c1.5276722 0 2.6216954.84490728 2.6544437 2.06390728h-1.3305729c-.0587185-.6091192-.5763708-.98245033-1.363245-.98245033-.7667682 0-1.2777185.35330133-1.2777185.89098344 0 .41278146.3406589.68794371 1.0553344.86493709l1.1602053.26922186c1.3892914.33395695 1.9136457.84490728 1.9136457 1.85485099 0 1.24504636-1.1795497 2.09734109-2.8641093 2.09734109-1.625841 0-2.7198642-.83302652-2.8247351-2.09140069h1.4019338c.0989305.66189735.6292252 1.01596026 1.4882219 1.01596026.8456688 0 1.376649-.34736093 1.376649-.89768543 0-.42618543-.2625199-.65527152-.983212-.83896689l-1.2324039-.30120861c-1.2457318-.30197019-1.874957-.93782119-1.874957-1.89430132 0-1.219 1.0947848-2.05118874 2.7005199-2.05118874z"/></g></g></svg>