<?xml version="1.0" encoding="UTF-8"?>
<svg width="115px" height="20px" viewBox="0 0 115 20" version="1.1" xmlns="http://www.w3.org/2000/svg" xmlns:xlink="http://www.w3.org/1999/xlink">
    <!-- Generator: Sketch 56.3 (81716) - https://sketch.com -->
    <title>US_UK_Apple_Podcasts_Listen_Badge_RGB</title>
    <desc>Created with Sketch.</desc>
    <defs>
        <linearGradient x1="50%" y1="0%" x2="50%" y2="100%" id="linearGradient-1">
            <stop stop-color="#F452FF" offset="0%"></stop>
            <stop stop-color="#832BC1" offset="100%"></stop>
        </linearGradient>
    </defs>
    <g id="Page-1" stroke="none" stroke-width="1" fill="none" fill-rule="evenodd">
        <g id="Artboard-Copy-10" transform="translate(-328.000000, -436.000000)">
            <g id="Group-7" transform="translate(303.000000, 50.000000)">
                <g id="Group-4" transform="translate(25.000000, 348.000000)">
                    <g id="Group-6">
                        <g id="US_UK_Apple_Podcasts_Listen_Badge_RGB" transform="translate(0.000000, 38.000000)">
                            <g id="XMLID_632_">
                                <path d="M19.1784205,16.9286854 C18.9921358,17.4018609 18.5622947,18.0680993 17.9527185,18.5373907 C17.6007881,18.8084404 17.1806192,19.0675331 16.6034868,19.2385099 C15.9882748,19.4208344 15.2304934,19.482447 14.2873411,19.482447 L5.66363576,19.482447 C4.7205596,19.482447 3.96277815,19.4208344 3.34749007,19.2385099 C2.77035762,19.0675331 2.3502649,18.8084404 1.99825828,18.5373907 C1.38875828,18.0680232 0.95884106,17.4018609 0.772556291,16.9286854 C0.397321192,15.9753278 0.393513245,14.8936424 0.393513245,14.2124007 L0.393513245,14.2124007 L0.393513245,5.58861921 L0.393513245,5.58861921 C0.393513245,4.90737748 0.397321192,3.82569205 0.772556291,2.87233444 C0.95884106,2.39915894 1.38868212,1.73292053 1.99825828,1.26362914 C2.35018874,0.99257947 2.77035762,0.733486755 3.34749007,0.562509934 C3.96270199,0.38018543 4.72048344,0.318572848 5.66363576,0.318572848 L5.66363576,0.318572848 L14.2874172,0.318572848 L14.2874172,0.318572848 C15.2304934,0.318572848 15.9882748,0.38018543 16.6035629,0.562509934 C17.1806954,0.733486755 17.6007881,0.992655629 17.9527947,1.26362914 C18.5622947,1.73299669 18.9922119,2.39915894 19.1784967,2.87233444 C19.5537318,3.82569205 19.5575397,4.90737748 19.5575397,5.58861921 L19.5575397,14.2124007 C19.5575397,14.8935662 19.5536556,15.9752517 19.1784205,16.9286854 Z" id="XMLID_662_" fill="url(#linearGradient-1)"></path>
                                <path d="M19.1784205,16.9286854 C18.9921358,17.4018609 18.5622947,18.0680993 17.9527185,18.5373907 C17.6007881,18.8084404 17.1806192,19.0675331 16.6034868,19.2385099 C15.9882748,19.4208344 15.2304934,19.482447 14.2873411,19.482447 L5.66363576,19.482447 C4.7205596,19.482447 3.96277815,19.4208344 3.34749007,19.2385099 C2.77035762,19.0675331 2.3502649,18.8084404 1.99825828,18.5373907 C1.38875828,18.0680232 0.95884106,17.4018609 0.772556291,16.9286854 C0.397321192,15.9753278 0.393513245,14.8936424 0.393513245,14.2124007 L0.393513245,14.2124007 L0.393513245,5.58861921 L0.393513245,5.58861921 C0.393513245,4.90737748 0.397321192,3.82569205 0.772556291,2.87233444 C0.95884106,2.39915894 1.38868212,1.73292053 1.99825828,1.26362914 C2.35018874,0.99257947 2.77035762,0.733486755 3.34749007,0.562509934 C3.96270199,0.38018543 4.72048344,0.318572848 5.66363576,0.318572848 L5.66363576,0.318572848 L14.2874172,0.318572848 L14.2874172,0.318572848 C15.2304934,0.318572848 15.9882748,0.38018543 16.6035629,0.562509934 C17.1806954,0.733486755 17.6007881,0.992655629 17.9527947,1.26362914 C18.5622947,1.73299669 18.9922119,2.39915894 19.1784967,2.87233444 C19.5537318,3.82569205 19.5575397,4.90737748 19.5575397,5.58861921 L19.5575397,14.2124007 C19.5575397,14.8935662 19.5536556,15.9752517 19.1784205,16.9286854 Z" id="XMLID_660_"></path>
                                <g id="XMLID_648_" transform="translate(3.046358, 2.284768)" fill="#FFFFFF" fill-rule="nonzero">
                                    <path d="M8.31899338,9.0488245 C8.03141722,8.74540728 7.52633113,8.55089735 6.93008278,8.55089735 C6.33375828,8.55089735 5.82867219,8.74540728 5.54109603,9.0488245 C5.39106291,9.20715894 5.3117053,9.36945364 5.28672517,9.60067219 C5.23828808,10.0484106 5.26547682,10.4339272 5.31795033,11.0502815 C5.3679106,11.6376192 5.46280464,12.4208377 5.58663907,13.2185265 C5.67475497,13.7862152 5.74634437,14.0926026 5.81153642,14.3120166 C5.91724503,14.6676026 6.31228146,14.9785596 6.93008278,14.9785596 C7.54780795,14.9785596 7.94284437,14.6675265 8.04855298,14.3120166 C8.11374503,14.0926026 8.18533444,13.7862152 8.27345033,13.2185265 C8.39728477,12.4208377 8.49217881,11.6376192 8.54213907,11.0502815 C8.59461258,10.433851 8.62180132,10.0483344 8.57336424,9.60067219 C8.54838411,9.3695298 8.46902649,9.20715894 8.31899338,9.0488245 Z M5.36318874,6.34723841 C5.36318874,7.21339404 6.06537417,7.91557947 6.9315298,7.91557947 C7.79776159,7.91557947 8.49994702,7.21339404 8.49994702,6.34723841 C8.49994702,5.48100662 7.79776159,4.77882119 6.9315298,4.77882119 C6.06537417,4.77882119 5.36318874,5.48100662 5.36318874,6.34723841 Z M6.91210927,0.157773246 C3.24406623,0.168235099 0.238453642,3.14399338 0.193062914,6.81180795 C0.156201987,9.78299669 2.05286424,12.3245728 4.70129139,13.256149 C4.76556954,13.2787682 4.83083775,13.2253808 4.82070861,13.1579801 C4.78598013,12.9272947 4.75323179,12.6954669 4.72314901,12.4675232 C4.71248675,12.386947 4.66115563,12.3174901 4.58674834,12.2849702 C2.49344371,11.3704536 1.03172517,9.27105629 1.05518212,6.83922517 C1.08595033,3.64786093 3.69195695,1.04611921 6.88332119,1.02030132 C10.145894,0.993950331 12.8084868,3.64032119 12.8084868,6.89687748 C12.8084868,9.30433775 11.3531656,11.3779934 9.27615894,12.2851987 C9.20175166,12.3177185 9.15072517,12.387404 9.14013907,12.467904 C9.11005629,12.6957715 9.07730795,12.9275232 9.04265563,13.1579801 C9.03245033,13.2253808 9.09771854,13.2787682 9.16199669,13.2562252 C11.7851391,12.3335596 13.6707583,9.83150993 13.6707583,6.89695364 C13.670606,3.17438079 10.6369669,0.147139073 6.91210927,0.157773246 Z M6.79033113,3.24947351 C8.86969868,3.16897351 10.5869305,4.83715894 10.5869305,6.89893377 C10.5869305,7.94749007 10.1426954,8.8941457 9.43266556,9.56084106 C9.37242384,9.61735099 9.34005629,9.69762252 9.34470199,9.78010265 C9.35886755,10.030894 9.35368874,10.2746026 9.33700993,10.5498411 C9.33251656,10.6231821 9.41476821,10.6700199 9.47546689,10.6286656 C10.6661358,9.81498344 11.4492781,8.44678808 11.4492781,6.89893377 C11.4492781,4.35035099 9.32642384,2.28819536 6.75613576,2.38781126 C4.36748675,2.48042053 2.45109934,4.44981457 2.42048344,6.84013907 C2.40037748,8.41221192 3.18831788,9.80493046 4.3942947,10.6288179 C4.45484106,10.6701722 4.53686424,10.6232583 4.53237086,10.5499934 C4.51561589,10.2746026 4.51051325,10.030894 4.52460265,9.78010265 C4.52924834,9.69769868 4.49695695,9.61742715 4.43686755,9.56099338 C3.7046755,8.87358278 3.25503311,7.88846689 3.28366887,6.80091722 C3.33408609,4.88704305 4.87714238,3.32357616 6.79033113,3.24947351 Z" id="Shape"></path>
                                </g>
                            </g>
                            <g id="Group" transform="translate(23.609272, 4.569536)" fill="#000000" fill-rule="nonzero">
                                <path d="M6.26254967,7.4805596 L2.65764238,7.4805596 L1.79194371,10.0367583 L0.265033113,10.0367583 L3.67954305,0.578655629 L5.26593377,0.578655629 L8.68044371,10.0367583 L7.12748675,10.0367583 L6.26254967,7.4805596 Z M3.03097351,6.30093377 L5.88845695,6.30093377 L4.47982119,2.15164238 L4.44037086,2.15164238 L3.03097351,6.30093377 Z" id="Shape"></path>
                                <path d="M16.0546093,6.5895 C16.0546093,8.73223179 14.9077318,10.1088808 13.177096,10.1088808 C12.1946457,10.1088808 11.4143974,9.66936755 11.0076325,8.90252318 L10.9748841,8.90252318 L10.9748841,12.3177947 L9.55954636,12.3177947 L9.55954636,3.14155629 L10.9294934,3.14155629 L10.9294934,4.28843377 L10.9555397,4.28843377 C11.3489768,3.54839735 12.1879437,3.06943377 13.1510497,3.06943377 C14.9010298,3.06943377 16.0546093,4.45278477 16.0546093,6.5895 Z M14.5998212,6.5895 C14.5998212,5.19350662 13.8783675,4.27571523 12.7776424,4.27571523 C11.6962616,4.27571523 10.9688675,5.21285099 10.9688675,6.5895 C10.9688675,7.97879139 11.6962616,8.90922517 12.7776424,8.90922517 C13.8784437,8.90922517 14.5998212,7.99821192 14.5998212,6.5895 Z" id="Shape"></path>
                                <path d="M23.6436954,6.5895 C23.6436954,8.73223179 22.4968179,10.1088808 20.7661821,10.1088808 C19.7837318,10.1088808 19.0035596,9.66936755 18.5967185,8.90252318 L18.5639702,8.90252318 L18.5639702,12.3177947 L17.1486325,12.3177947 L17.1486325,3.14155629 L18.5185795,3.14155629 L18.5185795,4.28843377 L18.5446258,4.28843377 C18.9380629,3.54839735 19.7770298,3.06943377 20.7401358,3.06943377 C22.4901921,3.06943377 23.6436954,4.45278477 23.6436954,6.5895 Z M22.1889834,6.5895 C22.1889834,5.19350662 21.4675298,4.27571523 20.3668046,4.27571523 C19.2854238,4.27571523 18.5580298,5.21285099 18.5580298,6.5895 C18.5580298,7.97879139 19.2854238,8.90922517 20.3668046,8.90922517 C21.4675298,8.90922517 22.1889834,7.99821192 22.1889834,6.5895 Z" id="Shape"></path>
                                <polygon id="Path" points="24.7898113 0.578655629 26.2059106 0.578655629 26.2059106 10.0367583 24.7898113 10.0367583"></polygon>
                                <path d="M33.5748974,8.01153974 C33.3845,9.26328808 32.1655,10.1222848 30.6059172,10.1222848 C28.600043,10.1222848 27.3549967,8.77838411 27.3549967,6.62224834 C27.3549967,4.45948675 28.606745,3.05679139 30.5463609,3.05679139 C32.4540662,3.05679139 33.6537219,4.36725828 33.6537219,6.45789735 L33.6537219,6.94280132 L28.7837384,6.94280132 L28.7837384,7.02832781 C28.7837384,8.20787748 29.5245364,8.98142384 30.6385894,8.98142384 C31.424702,8.98142384 32.0412848,8.60809272 32.2309205,8.01161589 L33.5748974,8.01161589 L33.5748974,8.01153974 Z M28.7903642,5.95364901 L32.2376225,5.95364901 C32.2048742,4.89831457 31.5295728,4.20359272 30.5463609,4.20359272 C29.569851,4.20359272 28.8625629,4.91164238 28.7903642,5.95364901 Z" id="Shape"></path>
                                <path d="M41.1922384,0.578655629 C43.0270596,0.578655629 44.3055397,1.84373179 44.3055397,3.68601656 C44.3055397,5.53424172 43.0010132,6.80525828 41.1461623,6.80525828 L39.1142417,6.80525828 L39.1142417,10.0368344 L37.6461258,10.0368344 L37.6461258,0.578655629 L41.1922384,0.578655629 Z M39.1142417,5.57361589 L40.7988013,5.57361589 C42.0765199,5.57361589 42.8039139,4.8849106 42.8039139,3.69271854 C42.8039139,2.4997649 42.0765199,1.81738079 40.8055033,1.81738079 L39.1142417,1.81738079 L39.1142417,5.57361589 L39.1142417,5.57361589 Z" id="Shape"></path>
                                <path d="M44.8224305,6.5895 C44.8224305,4.42003642 46.100149,3.05671523 48.0926192,3.05671523 C50.0917914,3.05671523 51.3635695,4.41996026 51.3635695,6.5895 C51.3635695,8.76490397 50.0984934,10.1222848 48.0926192,10.1222848 C46.0875066,10.1222848 44.8224305,8.76498013 44.8224305,6.5895 Z M49.9215,6.5895 C49.9215,5.10127815 49.2394967,4.22293709 48.0926192,4.22293709 C46.9457417,4.22293709 46.2637384,5.10798013 46.2637384,6.5895 C46.2637384,8.08366225 46.9457417,8.95530132 48.0926192,8.95530132 C49.2394967,8.95530132 49.9215,8.08373841 49.9215,6.5895 Z" id="Shape"></path>
                                <path d="M52.3572914,6.5895 C52.3572914,4.4594106 53.5301391,3.06935762 55.240745,3.06935762 C56.2306589,3.06935762 57.0108311,3.52821523 57.4035066,4.28835762 L57.4303146,4.28835762 L57.4303146,0.57857947 L58.8523543,0.57857947 L58.8523543,10.0366821 L57.4757053,10.0366821 L57.4757053,8.86383444 L57.4496589,8.86383444 C57.0435795,9.64994702 56.2567053,10.1088808 55.254149,10.1088808 C53.5301391,10.1088808 52.3572914,8.7195894 52.3572914,6.5895 Z M53.8053013,6.5895 C53.8053013,8.00483775 54.526755,8.90922517 55.6274801,8.90922517 C56.7155629,8.90922517 57.442957,7.99143377 57.442957,6.5895 C57.442957,5.19944702 56.7155629,4.27571523 55.6274801,4.27571523 C54.526755,4.27579139 53.8053013,5.18680464 53.8053013,6.5895 Z" id="Shape"></path>
                                <path d="M64.8751556,5.5140596 C64.7509404,4.78666556 64.1805099,4.24304305 63.2500762,4.24304305 C62.1619934,4.24304305 61.4405397,5.15413245 61.4405397,6.58957616 C61.4405397,8.05769205 62.1686954,8.94204967 63.2627185,8.94204967 C64.1410596,8.94204967 64.7181921,8.50322185 64.8751556,7.7037053 L66.2384007,7.7037053 C66.0814371,9.15179139 64.9212318,10.1223609 63.2500762,10.1223609 C61.2836523,10.1223609 59.9991556,8.77846026 59.9991556,6.58957616 C59.9991556,4.44608278 61.2835762,3.05679139 63.2366722,3.05679139 C65.0059967,3.05679139 66.1074834,4.17092053 66.2257583,5.51413576 L64.8751556,5.51413576 L64.8751556,5.5140596 Z" id="Path"></path>
                                <path d="M67.1056225,8.07703642 C67.1056225,6.8714404 68.0293543,6.14328477 69.6678377,6.04511589 L71.5554371,5.94024503 L71.5554371,5.41589073 C71.5554371,4.64912252 71.0511887,4.2162351 70.1928775,4.2162351 C69.4060033,4.2162351 68.8556026,4.59032781 68.744106,5.18680464 L67.4202351,5.18680464 C67.4596854,3.94107285 68.6191291,3.05671523 70.2315662,3.05671523 C71.8767517,3.05671523 72.9648344,3.95440066 72.9648344,5.31101987 L72.9648344,10.0367583 L71.6082914,10.0367583 L71.6082914,8.90252318 L71.575543,8.90252318 C71.175404,9.66929139 70.3037649,10.154957 69.3993775,10.154957 C68.0494603,10.1550331 67.1056225,9.31606623 67.1056225,8.07703642 Z M71.5554371,7.45451325 L71.5554371,6.92345695 L69.8582351,7.02832781 C69.0125662,7.08110596 68.5343642,7.44781126 68.5343642,8.03758609 C68.5343642,8.6407649 69.0326722,9.03420199 69.7928146,9.03420199 C70.7826523,9.03420199 71.5554371,8.35219868 71.5554371,7.45451325 Z" id="Shape"></path>
                                <path d="M76.9155795,3.06349338 C78.4432517,3.06349338 79.5372748,3.90840066 79.5700232,5.12740066 L78.2394503,5.12740066 C78.1807318,4.51828146 77.6630795,4.14495033 76.8762053,4.14495033 C76.1094371,4.14495033 75.5984868,4.49825166 75.5984868,5.03593377 C75.5984868,5.44871523 75.9391457,5.72387748 76.6538212,5.90087086 L77.8140265,6.17009272 C79.2033179,6.50404967 79.7276722,7.015 79.7276722,8.02494371 C79.7276722,9.26999007 78.5481225,10.1222848 76.8635629,10.1222848 C75.2377219,10.1222848 74.1436987,9.28925828 74.0388278,8.03088411 L75.4407616,8.03088411 C75.5396921,8.69278146 76.0699868,9.04684437 76.9289834,9.04684437 C77.7746523,9.04684437 78.3056325,8.69948344 78.3056325,8.14915894 C78.3056325,7.72297351 78.0431126,7.49388742 77.3224205,7.31019205 L76.0900166,7.00898344 C74.8442848,6.70701325 74.2150596,6.07116225 74.2150596,5.11468212 C74.2150596,3.89568212 75.3098444,3.06349338 76.9155795,3.06349338 Z" id="Path"></path>
                                <path d="M82.8029702,1.50939404 L82.8029702,3.14155629 L84.1141987,3.14155629 L84.1141987,4.26238742 L82.8029702,4.26238742 L82.8029702,8.06363245 C82.8029702,8.65416887 83.0654901,8.92933113 83.6419371,8.92933113 C83.7862583,8.92933113 84.0160298,8.90922517 84.1074967,8.89658278 L84.1074967,10.0107119 C83.9505331,10.0501623 83.6359967,10.0761325 83.3213841,10.0761325 C81.9253907,10.0761325 81.3809305,9.55177815 81.3809305,8.21457947 L81.3809305,4.26231126 L80.3783742,4.26231126 L80.3783742,3.14155629 L81.3809305,3.14155629 L81.3809305,1.50939404 L82.8029702,1.50939404 Z" id="Path"></path>
                                <path d="M87.9199371,3.06349338 C89.4476093,3.06349338 90.5416325,3.90840066 90.5743808,5.12740066 L89.2438079,5.12740066 C89.1850894,4.51828146 88.6674371,4.14495033 87.8805629,4.14495033 C87.1137947,4.14495033 86.6028444,4.49825166 86.6028444,5.03593377 C86.6028444,5.44871523 86.9435033,5.72387748 87.6581788,5.90087086 L88.8183841,6.17009272 C90.2076755,6.50404967 90.7320298,7.015 90.7320298,8.02494371 C90.7320298,9.26999007 89.5524801,10.1222848 87.8679205,10.1222848 C86.2420795,10.1222848 85.1480563,9.28925828 85.0431854,8.03088411 L86.4451192,8.03088411 C86.5440497,8.69278146 87.0743444,9.04684437 87.9333411,9.04684437 C88.7790099,9.04684437 89.3099901,8.69948344 89.3099901,8.14915894 C89.3099901,7.72297351 89.0474702,7.49388742 88.3267781,7.31019205 L87.0943742,7.00898344 C85.8486424,6.70701325 85.2194172,6.07116225 85.2194172,5.11468212 C85.2194172,3.89568212 86.314202,3.06349338 87.9199371,3.06349338 Z" id="Path"></path>
                            </g>
                        </g>
                    </g>
                </g>
            </g>
        </g>
    </g>
</svg>