<?xml version="1.0" encoding="UTF-8"?>
<svg width="115px" height="22px" viewBox="0 0 115 22" version="1.1" xmlns="http://www.w3.org/2000/svg" xmlns:xlink="http://www.w3.org/1999/xlink">
    <!-- Generator: Sketch 56.3 (81716) - https://sketch.com -->
    <title>google_podcasts_badge_svg</title>
    <desc>Created with Sketch.</desc>
    <g id="Page-1" stroke="none" stroke-width="1" fill="none" fill-rule="evenodd">
        <g id="Artboard-Copy-10" transform="translate(-328.000000, -486.000000)" fill-rule="nonzero">
            <g id="Group-7" transform="translate(303.000000, 50.000000)">
                <g id="Group-4" transform="translate(25.000000, 348.000000)">
                    <g id="Group-6">
                        <g id="google_podcasts_badge_svg" transform="translate(0.000000, 88.000000)">
                            <g id="Podcast_icon_final">
                                <g id="_logo_Podcasts_192px">
                                    <polygon id="Shape" fill="#FAB908" points="9.22395833 6.70833333 9.22395833 9.90317708 9.22395833 11.1801562 9.22395833 14.375 11.859375 14.375 11.859375 11.1801562 11.859375 9.90317708 11.859375 6.70833333"></polygon>
                                    <circle id="Oval" fill="#0066D9" cx="1.31770833" cy="9.82291667" r="1.31770833"></circle>
                                    <circle id="Oval" fill="#0066D9" cx="1.31770833" cy="11.2604167" r="1.31770833"></circle>
                                    <rect id="Rectangle-path" fill="#0066D9" x="0" y="9.82291667" width="2.63541667" height="1.4375"></rect>
                                    <circle id="Oval" fill="#4285F4" cx="19.765625" cy="11.2604167" r="1.31770833"></circle>
                                    <circle id="Oval" fill="#4285F4" cx="19.765625" cy="9.82291667" r="1.31770833"></circle>
                                    <rect id="Rectangle-path" fill="#4285F4" transform="translate(19.765625, 10.541667) rotate(180.000000) translate(-19.765625, -10.541667) " x="18.4479167" y="9.82291667" width="2.63541667" height="1.4375"></rect>
                                    <circle id="Oval" fill="#EA4335" cx="5.86979167" cy="14.1354167" r="1.31770833"></circle>
                                    <circle id="Oval" fill="#EA4335" cx="5.86979167" cy="15.5729167" r="1.31770833"></circle>
                                    <rect id="Rectangle-path" fill="#EA4335" x="4.55208333" y="14.1354167" width="2.63541667" height="1.4375"></rect>
                                    <circle id="Oval" fill="#EA4335" cx="5.86979167" cy="5.51041667" r="1.31770833"></circle>
                                    <circle id="Oval" fill="#EA4335" cx="5.86979167" cy="10.1822917" r="1.31770833"></circle>
                                    <rect id="Rectangle-path" fill="#EA4335" x="4.55208333" y="5.51041667" width="2.63541667" height="4.70182292"></rect>
                                    <circle id="Oval" fill="#34A853" cx="15.2135417" cy="6.94791667" r="1.31770833"></circle>
                                    <circle id="Oval" fill="#34A853" cx="15.2135417" cy="5.51041667" r="1.31770833"></circle>
                                    <rect id="Rectangle-path" fill="#34A853" transform="translate(15.213542, 6.229167) rotate(180.000000) translate(-15.213542, -6.229167) " x="13.8958333" y="5.51041667" width="2.63541667" height="1.4375"></rect>
                                    <circle id="Oval" fill="#FAB908" cx="10.5416667" cy="2.75520833" r="1.31770833"></circle>
                                    <circle id="Oval" fill="#FAB908" cx="10.5416667" cy="1.31770833" r="1.31770833"></circle>
                                    <rect id="Rectangle-path" fill="#FAB908" transform="translate(10.541667, 2.036458) rotate(180.000000) translate(-10.541667, -2.036458) " x="9.22395833" y="1.31770833" width="2.63541667" height="1.4375"></rect>
                                    <circle id="Oval" fill="#FAB908" cx="10.5416667" cy="19.765625" r="1.31770833"></circle>
                                    <circle id="Oval" fill="#FAB908" cx="10.5416667" cy="18.328125" r="1.31770833"></circle>
                                    <rect id="Rectangle-path" fill="#FAB908" transform="translate(10.541667, 19.046875) rotate(180.000000) translate(-10.541667, -19.046875) " x="9.22395833" y="18.328125" width="2.63541667" height="1.4375"></rect>
                                    <circle id="Oval" fill="#34A853" cx="15.2135417" cy="15.5729167" r="1.31770833"></circle>
                                    <circle id="Oval" fill="#34A853" cx="15.2135417" cy="10.9010417" r="1.31770833"></circle>
                                    <rect id="Rectangle-path" fill="#34A853" transform="translate(15.213542, 13.236979) rotate(180.000000) translate(-15.213542, -13.236979) " x="13.8958333" y="10.9010417" width="2.63541667" height="4.671875"></rect>
                                    <circle id="Oval" fill="#FAB908" cx="10.5416667" cy="6.70833333" r="1.31770833"></circle>
                                    <circle id="Oval" fill="#FAB908" cx="10.5416667" cy="14.375" r="1.31770833"></circle>
                                </g>
                            </g>
                            <g id="Group" transform="translate(27.791667, 4.791667)" fill="#3C4043">
                                <path d="M43.0443935,10.0625 L41.9472083,10.0625 L41.9472083,1.52353704 L44.8571342,1.52353704 C45.5806441,1.52353704 46.2067489,1.7640408 46.7354675,2.24505556 C47.2641863,2.7260703 47.5285417,3.33229881 47.5285417,4.06375925 C47.5285417,4.79521971 47.2641863,5.40144822 46.7354675,5.88246296 C46.2067489,6.36347772 45.5806441,6.60398148 44.8571342,6.60398148 L43.0443935,6.60398148 L43.0443935,10.0625 Z M43.0443935,5.5545 L44.8809861,5.5545 C45.3421242,5.5545 45.7118242,5.39946451 45.9900973,5.08938889 C46.2683702,4.77931326 46.4075046,4.43744014 46.4075046,4.06375925 C46.4075046,3.69007838 46.2683702,3.34820526 45.9900973,3.03812963 C45.7118242,2.72805401 45.3421242,2.57301852 44.8809861,2.57301852 L43.0443935,2.57301852 L43.0443935,5.5545 Z M48.4382662,4.92242592 C49.0027629,4.32612665 49.7222866,4.02798148 50.5968588,4.02798148 C51.4714311,4.02798148 52.1909548,4.32413902 52.7554514,4.91646296 C53.319948,5.50878692 53.6021921,6.25017456 53.6021921,7.14064815 C53.6021921,8.03112173 53.319948,8.77250939 52.7554514,9.36483333 C52.1909548,9.95715732 51.4714311,10.2533148 50.5968588,10.2533148 C49.7222866,10.2533148 49.0027629,9.95715732 48.4382662,9.36483333 C47.8737696,8.77250939 47.5915254,8.03112173 47.5915254,7.14064815 C47.5915254,6.25017456 47.8737696,5.51077455 48.4382662,4.92242592 Z M49.2492292,8.67909259 C49.6308607,9.06072413 50.0800661,9.25153704 50.5968588,9.25153704 C51.1136515,9.25153704 51.5608693,9.05873649 51.9385254,8.67312963 C52.3161817,8.28752276 52.5050069,7.77670071 52.5050069,7.14064815 C52.5050069,6.50459559 52.3161817,5.99377353 51.9385254,5.60816667 C51.5608693,5.2225598 51.1136515,5.02975925 50.5968588,5.02975925 C50.0800661,5.02975925 49.6328484,5.2225598 49.2551921,5.60816667 C48.8775359,5.99377353 48.6887106,6.50459559 48.6887106,7.14064815 C48.6887106,7.77670071 48.8755483,8.28951039 49.2492292,8.67909259 Z M56.9090277,10.2533148 C56.1537153,10.2533148 55.5017713,9.95516964 54.9531759,9.35887037 C54.4045806,8.76257109 54.1302871,8.02317107 54.1302871,7.14064815 C54.1302871,6.25812522 54.4045806,5.51872521 54.9531759,4.92242592 C55.5017713,4.32612665 56.1537153,4.02798148 56.9090277,4.02798148 C57.3542645,4.02798148 57.7537791,4.12338793 58.1075833,4.31420371 C58.4613875,4.50501947 58.7257429,4.7435356 58.9006574,5.02975925 L58.9483611,5.02975925 L58.9006574,4.21879629 L58.9006574,1.52353704 L59.9978425,1.52353704 L59.9978425,10.0625 L58.9483611,10.0625 L58.9483611,9.25153704 L58.9006574,9.25153704 C58.7257429,9.53776069 58.4613875,9.77627679 58.1075833,9.96709255 C57.7537791,10.1579084 57.3542645,10.2533148 56.9090277,10.2533148 Z M57.0879167,9.25153704 C57.6047094,9.25153704 58.0439765,9.06072413 58.4057315,8.67909259 C58.7674864,8.29746105 58.9483611,7.78465137 58.9483611,7.14064815 C58.9483611,6.49664493 58.7674864,5.98383524 58.4057315,5.60220371 C58.0439765,5.22057216 57.6047094,5.02975925 57.0879167,5.02975925 C56.5790746,5.02975925 56.141795,5.2225598 55.7760648,5.60816667 C55.4103346,5.99377353 55.2274723,6.50459559 55.2274723,7.14064815 C55.2274723,7.77670071 55.4103346,8.28752276 55.7760648,8.67312963 C56.141795,9.05873649 56.5790746,9.25153704 57.0879167,9.25153704 Z M63.8055671,10.2533148 C62.9309949,10.2533148 62.2114712,9.95715732 61.6469746,9.36483333 C61.0824779,8.77250939 60.8002338,8.03112173 60.8002338,7.14064815 C60.8002338,6.25017456 61.0824779,5.50878692 61.6469746,4.91646296 C62.2114712,4.32413902 62.9309949,4.02798148 63.8055671,4.02798148 C64.457521,4.02798148 64.9981575,4.18699224 65.4274931,4.50501852 C65.8568285,4.8230448 66.1708747,5.22454695 66.3696412,5.70953704 L65.3678634,6.12694444 C65.0657384,5.395484 64.5211266,5.02975925 63.7340116,5.02975925 C63.2490215,5.02975925 62.8216801,5.22852271 62.4519746,5.62605556 C62.082269,6.02358841 61.897419,6.52844755 61.897419,7.14064815 C61.897419,7.75284874 62.082269,8.25770789 62.4519746,8.65524074 C62.8216801,9.05277359 63.2490215,9.25153704 63.7340116,9.25153704 C64.5529292,9.25153704 65.1174174,8.88581229 65.4274931,8.15435185 L66.405419,8.57175925 C66.2066526,9.04879868 65.8866434,9.4483132 65.4453819,9.7703148 C65.0041205,10.0923164 64.457521,10.2533148 63.8055671,10.2533148 Z M69.008625,10.2533148 C68.3884738,10.2533148 67.8697011,10.0744277 67.4522917,9.71664814 C67.0348822,9.35886858 66.8261806,8.88581159 66.8261806,8.29746296 C66.8261806,7.6614104 67.0726472,7.16251415 67.5655879,6.80075925 C68.0585287,6.43900437 68.6667449,6.25812963 69.3902546,6.25812963 C70.0342579,6.25812963 70.5629686,6.37738769 70.9764027,6.61590741 L70.9764027,6.44894444 C70.9764027,6.01960896 70.8293178,5.67574821 70.5351435,5.41735185 C70.2409692,5.1589555 69.8792198,5.02975925 69.4498842,5.02975925 C69.1318579,5.02975925 68.843651,5.10528937 68.5852546,5.25635185 C68.3268582,5.40741434 68.1499588,5.61412831 68.0545509,5.8765 L67.0527731,5.44716667 C67.1879344,5.09733776 67.4542773,4.77335334 67.8518102,4.47520371 C68.2493431,4.17705406 68.7740786,4.02798148 69.4260324,4.02798148 C70.1733942,4.02798148 70.7935361,4.24662127 71.2864769,4.68390741 C71.7794176,5.12119354 72.0258842,5.73736023 72.0258842,6.53242592 L72.0258842,10.0625 L70.9764027,10.0625 L70.9764027,9.25153704 L70.9286991,9.25153704 C70.491413,9.91939227 69.8513946,10.2533148 69.008625,10.2533148 Z M69.1875139,9.25153704 C69.6407013,9.25153704 70.0521417,9.0825881 70.4218473,8.74468519 C70.7915528,8.40678226 70.9764027,8.00726773 70.9764027,7.54612963 C70.6663272,7.2917086 70.2012207,7.1645 69.5810694,7.1645 C69.0483754,7.1645 68.6468732,7.27978279 68.3765509,7.51035185 C68.1062286,7.7409209 67.9710694,8.01123919 67.9710694,8.32131481 C67.9710694,8.60753847 68.0943027,8.83412879 68.3407731,9.00109259 C68.5872435,9.16805639 68.8694876,9.25153704 69.1875139,9.25153704 Z M75.2373125,10.2533148 C74.5853586,10.2533148 74.0467096,10.094304 73.6213496,9.77627775 C73.1959894,9.45825149 72.8839307,9.06072461 72.6851644,8.58368519 L73.6630902,8.17820371 C73.9731659,8.90966415 74.5018767,9.27538889 75.2492384,9.27538889 C75.5911167,9.27538889 75.8713731,9.19985878 76.0900162,9.04879629 C76.3086593,8.89773381 76.4179792,8.69897037 76.4179792,8.4525 C76.4179792,8.07086847 76.1516362,7.81247598 75.6189421,7.67731481 L74.4382754,7.39109259 C74.0645945,7.29568471 73.7107957,7.11480998 73.3768681,6.84846296 C73.0429405,6.58211596 72.8759792,6.22235411 72.8759792,5.76916667 C72.8759792,5.25237395 73.1045571,4.83298309 73.5617199,4.51098148 C74.0188827,4.18897987 74.5615069,4.02798148 75.1896088,4.02798148 C75.7064015,4.02798148 76.1675327,4.14525192 76.5730162,4.37979629 C76.9784997,4.61434068 77.2686943,4.9502509 77.4436088,5.38753704 L76.4895348,5.78109259 C76.2748669,5.26429989 75.8296369,5.00590741 75.153831,5.00590741 C74.827854,5.00590741 74.5535605,5.07348698 74.3309421,5.20864815 C74.1083238,5.34380931 73.9970162,5.52667169 73.9970162,5.75724074 C73.9970162,6.09116833 74.2554087,6.31775866 74.7722014,6.43701852 L75.9290162,6.71131481 C76.4776116,6.83852533 76.883089,7.05716511 77.1454606,7.36724074 C77.4078324,7.67731637 77.5390162,8.02714003 77.5390162,8.41672223 C77.5390162,8.94146559 77.3243517,9.37874516 76.8950162,9.72857412 C76.4656807,10.078403 75.9131183,10.2533148 75.2373125,10.2533148 Z M80.822,10.1579074 C80.2097994,10.1579074 79.7427054,9.9949214 79.4207037,9.66894441 C79.0987021,9.3429675 78.9377037,8.88183631 78.9377037,8.28553704 L78.9377037,5.22057408 L77.9120741,5.22057408 L77.9120741,4.21879629 L78.9377037,4.21879629 L78.9377037,2.42990741 L80.0348889,2.42990741 L80.0348889,4.21879629 L81.466,4.21879629 L81.466,5.22057408 L80.0348889,5.22057408 L80.0348889,8.20205556 C80.0348889,8.83810812 80.2972566,9.15612963 80.822,9.15612963 C81.0207664,9.15612963 81.1877277,9.12432748 81.3228889,9.06072223 L81.7045185,10.0028704 C81.4659988,10.1062289 81.1718289,10.1579074 80.822,10.1579074 Z M84.6655023,10.2533148 C84.0135484,10.2533148 83.4748995,10.094304 83.0495394,9.77627775 C82.6241792,9.45825149 82.3121205,9.06072461 82.1133542,8.58368519 L83.09128,8.17820371 C83.4013557,8.90966415 83.9300665,9.27538889 84.6774283,9.27538889 C85.0193065,9.27538889 85.2995629,9.19985878 85.518206,9.04879629 C85.7368491,8.89773381 85.846169,8.69897037 85.846169,8.4525 C85.846169,8.07086847 85.579826,7.81247598 85.0471319,7.67731481 L83.8664652,7.39109259 C83.4927844,7.29568471 83.1389855,7.11480998 82.8050579,6.84846296 C82.4711303,6.58211596 82.304169,6.22235411 82.304169,5.76916667 C82.304169,5.25237395 82.5327469,4.83298309 82.9899098,4.51098148 C83.4470725,4.18897987 83.9896967,4.02798148 84.6177986,4.02798148 C85.1345913,4.02798148 85.5957225,4.14525192 86.001206,4.37979629 C86.4066895,4.61434068 86.6968842,4.9502509 86.8717986,5.38753704 L85.9177246,5.78109259 C85.7030568,5.26429989 85.2578267,5.00590741 84.5820208,5.00590741 C84.2560439,5.00590741 83.9817503,5.07348698 83.7591319,5.20864815 C83.5365136,5.34380931 83.425206,5.52667169 83.425206,5.75724074 C83.425206,6.09116833 83.6835985,6.31775866 84.2003912,6.43701852 L85.357206,6.71131481 C85.9058014,6.83852533 86.3112788,7.05716511 86.5736504,7.36724074 C86.8360222,7.67731637 86.967206,8.02714003 86.967206,8.41672223 C86.967206,8.94146559 86.7525415,9.37874516 86.323206,9.72857412 C85.8938705,10.078403 85.3413081,10.2533148 84.6655023,10.2533148 Z" id="Podcasts"></path>
                                <path d="M0.279513889,5.35734954 C0.279513889,2.65538194 2.54357639,0.465856481 5.24554398,0.465856481 C6.73628473,0.465856481 7.7984375,1.05283565 8.59971065,1.81684027 L7.64936342,2.75787037 C7.08101852,2.21747685 6.30769676,1.79820602 5.24554398,1.79820602 C3.27962963,1.79820602 1.74230325,3.38211806 1.74230325,5.34803241 C1.74230325,7.31394676 3.27962963,8.89785879 5.24554398,8.89785879 C6.52199075,8.89785879 7.24872685,8.38541667 7.71458333,7.91956019 C8.09658565,7.53755787 8.34814815,6.98784723 8.44131944,6.24247685 L5.24554398,6.24247685 L5.24554398,4.91012731 L9.74571755,4.91012731 C9.79230328,5.15237269 9.82025461,5.43188658 9.82025461,5.74866898 C9.82025461,6.75491898 9.55005787,7.99409723 8.66493056,8.86990741 C7.7984375,9.76435186 6.69901621,10.2395254 5.24554398,10.2395254 C2.54357639,10.2395254 0.279513889,8.05 0.279513889,5.35734954 Z M13.4073496,4.00636575 C15.1496527,4.00636575 16.5658565,5.32939815 16.5658565,7.15555556 C16.5658565,8.97239583 15.1496527,10.3047454 13.4073496,10.3047454 C11.6650463,10.3047454 10.2488426,8.97239583 10.2488426,7.15555556 C10.2488426,5.32939815 11.6650463,4.00636575 13.4073496,4.00636575 Z M13.4073496,9.05625 C14.3576967,9.05625 15.1869213,8.27361111 15.1869213,7.14623842 C15.1869213,6.00954861 14.3576967,5.23622685 13.4073496,5.23622685 C12.4476852,5.23622685 11.6277777,6.00954861 11.6277777,7.14623842 C11.6277777,8.27361111 12.4570023,9.05625 13.4073496,9.05625 Z M20.3020254,4.00636575 C22.0443287,4.00636575 23.4605325,5.32939815 23.4605325,7.15555556 C23.4605325,8.97239583 22.0443287,10.3047454 20.3020254,10.3047454 C18.5597223,10.3047454 17.1435185,8.97239583 17.1435185,7.15555556 C17.1435185,5.32939815 18.5597223,4.00636575 20.3020254,4.00636575 Z M20.3020254,9.05625 C21.2523727,9.05625 22.0815973,8.27361111 22.0815973,7.14623842 C22.0815973,6.00954861 21.2616898,5.23622685 20.3020254,5.23622685 C19.3423611,5.23622685 18.5224537,6.00954861 18.5224537,7.14623842 C18.5224537,8.27361111 19.3516783,9.05625 20.3020254,9.05625 Z M28.7619792,4.10885417 L30.0850116,4.10885417 L30.0850116,9.76435186 C30.0850116,12.0936342 28.7153935,13.0439815 27.0942129,13.0439815 C25.5662037,13.0439815 24.6438079,12.0190973 24.2990741,11.1805556 L25.5009838,10.6774306 C25.7152777,11.1898727 26.2370371,11.7954861 27.0848958,11.7954861 C28.1190973,11.7954861 28.7619792,11.1526042 28.7619792,9.95069441 L28.7619792,9.49415509 L28.7153935,9.49415509 C28.4079283,9.87615745 27.8116319,10.2115741 27.0569444,10.2115741 C25.4823496,10.2115741 24.0381944,8.83263889 24.0381944,7.07170139 C24.0381944,5.29212963 25.4823496,3.91319444 27.0569444,3.91319444 C27.8116319,3.91319444 28.4079283,4.24861111 28.7153935,4.62129629 L28.7619792,4.62129629 L28.7619792,4.10885417 Z M27.1780671,8.97239583 C28.1190973,8.97239583 28.8644676,8.18043981 28.8551504,7.07170139 C28.8551504,5.96296296 28.1190973,5.15237269 27.1780671,5.15237269 C26.22772,5.15237269 25.4264467,5.96296296 25.4264467,7.07170139 C25.4264467,8.17112269 26.22772,8.97239583 27.1780671,8.97239583 Z M31.0260417,10.0904514 L31.0260417,0.838541667 L32.4049769,0.838541667 L32.4049769,10.0904514 L31.0260417,10.0904514 Z M36.1970486,9.05625 C36.9051504,9.05625 37.3896412,8.71151621 37.7530092,8.18975694 L38.8244792,8.90717592 C38.4704283,9.41961806 37.6412037,10.3047454 36.1970486,10.3047454 C34.4081598,10.3047454 33.0758102,8.91649306 33.0758102,7.15555556 C33.0758102,5.2828125 34.426794,4.00636575 36.0479746,4.00636575 C37.6784723,4.00636575 38.4797454,5.30144676 38.740625,6.00954861 L38.8803819,6.36359954 L34.6690394,8.10590277 C34.9951389,8.73015046 35.4889467,9.05625 36.1970486,9.05625 Z M36.0945602,5.21759259 C35.3864583,5.21759259 34.4081598,5.84184027 34.4454283,7.05306713 L37.2592014,5.88842592 C37.1101273,5.48778935 36.6442708,5.21759259 36.0945602,5.21759259 Z" id="Combined-Shape"></path>
                            </g>
                        </g>
                    </g>
                </g>
            </g>
        </g>
    </g>
</svg>