<svg height="22" viewBox="0 0 115 22" width="115" xmlns="http://www.w3.org/2000/svg"><g fill="none"><g><path d="m9.22395833 6.70833333v3.19484375 1.27697912 3.1948438h2.63541667v-3.1948438-1.27697912-3.19484375z" fill="#fab908"/><circle cx="1.317708" cy="9.822917" fill="#0066d9" r="1.317708"/><circle cx="1.317708" cy="11.260417" fill="#0066d9" r="1.317708"/><path d="m0 9.822917h2.635417v1.4375h-2.635417z" fill="#0066d9"/><circle cx="19.765625" cy="11.260417" fill="#4285f4" r="1.317708"/><circle cx="19.765625" cy="9.822917" fill="#4285f4" r="1.317708"/><path d="m18.447917 9.822917h2.635417v1.4375h-2.635417z" fill="#4285f4" transform="matrix(-1 0 -0 -1 39.53125 21.083334)"/><circle cx="5.869792" cy="14.135417" fill="#ea4335" r="1.317708"/><circle cx="5.869792" cy="15.572917" fill="#ea4335" r="1.317708"/><path d="m4.552083 14.135417h2.635417v1.4375h-2.635417z" fill="#ea4335"/><circle cx="5.869792" cy="5.510417" fill="#ea4335" r="1.317708"/><circle cx="5.869792" cy="10.182292" fill="#ea4335" r="1.317708"/><path d="m4.552083 5.510417h2.635417v4.701823h-2.635417z" fill="#ea4335"/><circle cx="15.213542" cy="6.947917" fill="#34a853" r="1.317708"/><circle cx="15.213542" cy="5.510417" fill="#34a853" r="1.317708"/><path d="m13.895833 5.510417h2.635417v1.4375h-2.635417z" fill="#34a853" transform="matrix(-1 0 -0 -1 30.427084 12.458334)"/><g fill="#fab908"><circle cx="10.541667" cy="2.755208" r="1.317708"/><circle cx="10.541667" cy="1.317708" r="1.317708"/><path d="m9.223958 1.317708h2.635417v1.4375h-2.635417z" transform="matrix(-1 0 -0 -1 21.083334 4.072916)"/><circle cx="10.541667" cy="19.765625" r="1.317708"/><circle cx="10.541667" cy="18.328125" r="1.317708"/><path d="m9.223958 18.328125h2.635417v1.4375h-2.635417z" transform="matrix(-1 0 -0 -1 21.083334 38.09375)"/></g><circle cx="15.213542" cy="15.572917" fill="#34a853" r="1.317708"/><circle cx="15.213542" cy="10.901042" fill="#34a853" r="1.317708"/><path d="m13.895833 10.901042h2.635417v4.671875h-2.635417z" fill="#34a853" transform="matrix(-1 0 -0 -1 30.427084 26.473958)"/><circle cx="10.541667" cy="6.708333" fill="#fab908" r="1.317708"/><circle cx="10.541667" cy="14.375" fill="#fab908" r="1.317708"/></g><g fill="#3c4043" transform="translate(27.791667 4.791667)"><path d="m43.0443935 10.0625h-1.0971852v-8.53896296h2.9099259c.7235099 0 1.3496147.24050376 1.8783333.72151852.5287188.48101474.7930742 1.08724325.7930742 1.81870369 0 .73146046-.2643554 1.33768897-.7930742 1.81870371-.5287186.48101476-1.1548234.72151852-1.8783333.72151852h-1.8127407zm0-4.508h1.8365926c.4611381 0 .8308381-.15503549 1.1091112-.46511111.2782729-.31007563.4174073-.65194875.4174073-1.02562964 0-.37368087-.1391344-.71555399-.4174073-1.02562962-.2782731-.31007562-.6479731-.46511111-1.1091112-.46511111h-1.8365926zm5.3938727-.63207408c.5644967-.59629927 1.2840204-.89444444 2.1585926-.89444444.8745723 0 1.594096.29615754 2.1585926.88848148.5644966.59232396.8467407 1.3337116.8467407 2.22418519 0 .89047358-.2822441 1.63186124-.8467407 2.22418518-.5644966.59232399-1.2840203.88848147-2.1585926.88848147-.8745722 0-1.5940959-.29615748-2.1585926-.88848147-.5644966-.59232394-.8467408-1.3337116-.8467408-2.22418518 0-.89047359.2822442-1.6298736.8467408-2.21822223zm.810963 3.75666667c.3816315.38163154.8308369.57244445 1.3476296.57244445s.9640105-.19280055 1.3416666-.57840741c.3776563-.38560687.5664815-.89642892.5664815-1.53248148s-.1888252-1.14687462-.5664815-1.53248148c-.3776561-.38560687-.8248739-.57840742-1.3416666-.57840742s-.9640104.19280055-1.3416667.57840742c-.3776562.38560686-.5664815.89642892-.5664815 1.53248148s.1868377 1.14886224.5605186 1.53844444zm7.6597985 1.57422221c-.7553124 0-1.4072564-.29814516-1.9558518-.89444443-.5485953-.59629928-.8228888-1.3356993-.8228888-2.21822222 0-.88252293.2742935-1.62192294.8228888-2.21822223.5485954-.59629927 1.2005394-.89444444 1.9558518-.89444444.4452368 0 .8447514.09540645 1.1985556.28622223.3538042.19081576.6181596.42933189.7930741.71555554h.0477037l-.0477037-.81096296v-2.69525925h1.0971851v8.53896296h-1.0494814v-.81096296h-.0477037c-.1749145.28622365-.4392699.52473975-.7930741.71555551-.3538042.19081585-.7533188.28622225-1.1985556.28622225zm.178889-1.00177776c.5167927 0 .9560598-.19081291 1.3178148-.57244445.3617549-.38163154.5426296-.89444122.5426296-1.53844444s-.1808747-1.15681291-.5426296-1.53844444c-.361755-.38163155-.8010221-.57244446-1.3178148-.57244446-.5088421 0-.9461217.19280055-1.3118519.57840742-.3657302.38560686-.5485925.89642892-.5485925 1.53248148s.1828623 1.14687461.5485925 1.53248148c.3657302.38560686.8030098.57840741 1.3118519.57840741zm6.7176504 1.00177776c-.8745722 0-1.5940959-.29615748-2.1585925-.88848147-.5644967-.59232394-.8467408-1.3337116-.8467408-2.22418518 0-.89047359.2822441-1.63186123.8467408-2.22418519.5644966-.59232394 1.2840203-.88848148 2.1585925-.88848148.6519539 0 1.1925904.15901076 1.621926.47703704.4293354.31802628.7433816.71952843.9421481 1.20451852l-1.0017778.4174074c-.302125-.73146044-.8467368-1.09718519-1.6338518-1.09718519-.4849901 0-.9123315.19876346-1.282037.59629631-.3697056.39753285-.5545556.90239199-.5545556 1.51459259 0 .61220059.18485 1.11705974.5545556 1.51459259.3697055.39753285.7970469.5962963 1.282037.5962963.8189176 0 1.3834058-.36572475 1.6934815-1.09718519l.9779259.4174074c-.1987664.47703943-.5187756.87655395-.9600371 1.19855555-.4412614.3220016-.9878609.483-1.6398148.483zm5.2030579 0c-.6201512 0-1.1389239-.1788871-1.5563333-.53666666-.4174095-.35777956-.6261111-.83083655-.6261111-1.41918518 0-.63605256.2464666-1.13494881.7394073-1.49670371.4929408-.36175488 1.101157-.54262962 1.8246667-.54262962.6440033 0 1.172714.11925806 1.5861481.35777778v-.16696297c0-.42933548-.1470849-.77319623-.4412592-1.03159259-.2941743-.25839635-.6559237-.3875926-1.0852593-.3875926-.3180263 0-.6062332.07553012-.8646296.2265926-.2583964.15106249-.4352958.35777646-.5307037.62014815l-1.0017778-.42933333c.1351613-.34982891.4015042-.67381333.7990371-.97196296.3975329-.29814965.9222684-.44722223 1.5742222-.44722223.7473618 0 1.3675037.21863979 1.8604445.65592593.4929407.43728613.7394073 1.05345282.7394073 1.84851851v3.53007408h-1.0494815v-.81096296h-.0477036c-.4372861.66785523-1.0773045 1.00177776-1.9200741 1.00177776zm.1788889-1.00177776c.4531874 0 .8646278-.16894894 1.2343334-.50685185.3697055-.33790293.5545554-.73741746.5545554-1.19855556-.3100755-.25442103-.775182-.38162963-1.3953333-.38162963-.532694 0-.9341962.11528279-1.2045185.34585185-.2703223.23056905-.4054815.50088734-.4054815.81096296 0 .28622366.1232333.51281398.3697037.67977778s.5287145.25044445.8467408.25044445zm6.0497986 1.00177776c-.6519539 0-1.1906029-.1590108-1.6159629-.47703705-.4253602-.31802626-.7374189-.71555314-.9361852-1.19259256l.9779258-.40548148c.3100757.73146044.8387865 1.09718518 1.5861482 1.09718518.3418783 0 .6221347-.07553011.8407778-.2265926.2186431-.15106248.327963-.34982592.327963-.59629629 0-.38163153-.266343-.64002402-.7990371-.77518519l-1.1806667-.28622222c-.3736809-.09540788-.7274797-.27628261-1.0614073-.54262963-.3339276-.266347-.5008889-.62610885-.5008889-1.07929629 0-.51679272.2285779-.93618358.6857407-1.25818519s.999787-.483 1.6278889-.483c.5167927 0 .9779239.11727044 1.3834074.35181481.4054835.23454439.6956781.57045461.8705926 1.00774075l-.954074.39355555c-.2146679-.5167927-.6598979-.77518518-1.3357038-.77518518-.325977 0-.6002705.06757957-.8228889.20274074-.2226183.13516116-.3339259.31802354-.3339259.54859259 0 .33392759.2583925.56051792.7751852.67977778l1.1568148.27429629c.5485954.12721052.9540728.3458503 1.2164444.65592593.2623718.31007563.3935556.65989929.3935556 1.04948149 0 .52474336-.2146645.96202293-.644 1.31185189-.4293355.34982888-.9818979.52474068-1.6577037.52474068zm5.5846875-.0954074c-.6122006 0-1.0792946-.162986-1.4012963-.48896299-.3220016-.32597691-.483-.7871081-.483-1.38340737v-3.06496296h-1.0256296v-1.00177779h1.0256296v-1.78888888h1.0971852v1.78888888h1.4311111v1.00177779h-1.4311111v2.98148148c0 .63605256.2623677.95407407.7871111.95407407.1987664 0 .3657277-.03180215.5008889-.0954074l.3816296.94214817c-.2385197.1033585-.5326896.155037-.8825185.155037zm3.8435023.0954074c-.6519539 0-1.1906028-.1590108-1.6159629-.47703705-.4253602-.31802626-.7374189-.71555314-.9361852-1.19259256l.9779258-.40548148c.3100757.73146044.8387865 1.09718518 1.5861483 1.09718518.3418782 0 .6221346-.07553011.8407777-.2265926.2186431-.15106248.327963-.34982592.327963-.59629629 0-.38163153-.266343-.64002402-.7990371-.77518519l-1.1806667-.28622222c-.3736808-.09540788-.7274797-.27628261-1.0614073-.54262963-.3339276-.266347-.5008889-.62610885-.5008889-1.07929629 0-.51679272.2285779-.93618358.6857408-1.25818519.4571627-.32200161.9997869-.483 1.6278888-.483.5167927 0 .9779239.11727044 1.3834074.35181481.4054835.23454439.6956782.57045461.8705926 1.00774075l-.954074.39355555c-.2146678-.5167927-.6598979-.77518518-1.3357038-.77518518-.3259769 0-.6002705.06757957-.8228889.20274074-.2226183.13516116-.3339259.31802354-.3339259.54859259 0 .33392759.2583925.56051792.7751852.67977778l1.1568148.27429629c.5485954.12721052.9540728.3458503 1.2164444.65592593.2623718.31007563.3935556.65989929.3935556 1.04948149 0 .52474336-.2146645.96202293-.644 1.31185189-.4293355.34982888-.9818979.52474068-1.6577037.52474068z"/><path d="m.27951389 5.35734954c0-2.7019676 2.2640625-4.89149306 4.96603009-4.89149306 1.49074075 0 2.55289352.58697917 3.35416667 1.35098379l-.95034723.9410301c-.5683449-.54039352-1.34166666-.95966435-2.40381944-.95966435-1.96591435 0-3.50324073 1.58391204-3.50324073 3.54982639s1.53732638 3.54982638 3.50324073 3.54982638c1.27644677 0 2.00318287-.51244212 2.46903935-.9782986.38200232-.38200232.63356482-.93171296.72673611-1.67708334h-3.19577546v-1.33234954h4.50017357c.04658573.24224538.07453706.52175927.07453706.83854167 0 1.00625-.27019674 2.24542825-1.15532405 3.12123843-.86649306.89444445-1.96591435 1.36961799-3.41938658 1.36961799-2.70196759 0-4.96603009-2.1895254-4.96603009-4.88217586zm13.12783571-1.35098379c1.7423031 0 3.1585069 1.3230324 3.1585069 3.14918981 0 1.81684027-1.4162038 3.14918984-3.1585069 3.14918984-1.7423033 0-3.158507-1.33234957-3.158507-3.14918984 0-1.82615741 1.4162037-3.14918981 3.158507-3.14918981zm0 5.04988425c.9503471 0 1.7795717-.78263889 1.7795717-1.91001158 0-1.13668981-.8292246-1.91001157-1.7795717-1.91001157-.9596644 0-1.7795719.77332176-1.7795719 1.91001157 0 1.12737269.8292246 1.91001158 1.7795719 1.91001158zm6.8946758-5.04988425c1.7423033 0 3.1585071 1.3230324 3.1585071 3.14918981 0 1.81684027-1.4162038 3.14918984-3.1585071 3.14918984-1.7423031 0-3.1585069-1.33234957-3.1585069-3.14918984 0-1.82615741 1.4162038-3.14918981 3.1585069-3.14918981zm0 5.04988425c.9503473 0 1.7795719-.78263889 1.7795719-1.91001158 0-1.13668981-.8199075-1.91001157-1.7795719-1.91001157-.9596643 0-1.7795717.77332176-1.7795717 1.91001157 0 1.12737269.8292246 1.91001158 1.7795717 1.91001158zm8.4599538-4.94739583h1.3230324v5.65549769c0 2.32928234-1.3696181 3.27962964-2.9907987 3.27962964-1.5280092 0-2.450405-1.0248842-2.7951388-1.8634259l1.2019097-.503125c.2142939.5124421.7360533 1.1180555 1.583912 1.1180555 1.0342015 0 1.6770834-.6428819 1.6770834-1.84479169v-.45653932h-.0465857c-.3074652.38200236-.9037616.71741901-1.6584491.71741901-1.5745948 0-3.01875-1.37893521-3.01875-3.13987271 0-1.77957176 1.4441552-3.15850695 3.01875-3.15850695.7546875 0 1.3509839.33541667 1.6584491.70810185h.0465857zm-1.5839121 4.86354166c.9410302 0 1.6864005-.79195602 1.6770833-1.90069444 0-1.10873843-.7360531-1.9193287-1.6770833-1.9193287-.9503471 0-1.7516204.81059027-1.7516204 1.9193287 0 1.0994213.8012733 1.90069444 1.7516204 1.90069444zm3.8479746 1.11805557v-9.25190973h1.3789352v9.25190973zm5.1710069-1.0342014c.7081018 0 1.1925926-.34473379 1.5559606-.86649306l1.07147.71741898c-.3540509.51244214-1.1832755 1.39756948-2.6274306 1.39756948-1.7888888 0-3.1212384-1.38825234-3.1212384-3.14918984 0-1.87274306 1.3509838-3.14918981 2.9721644-3.14918981 1.6304977 0 2.4317708 1.29508101 2.6926504 2.00318286l.1397569.35405093-4.2113425 1.74230323c.3260995.62424769.8199073.95034723 1.5280092.95034723zm-.1024884-3.83865741c-.7081019 0-1.6864004.62424768-1.6491319 1.83547454l2.8137731-1.16464121c-.1490741-.40063657-.6149306-.67083333-1.1646412-.67083333z"/></g></g></svg>