<svg height="25" viewBox="0 0 83 25" width="83" xmlns="http://www.w3.org/2000/svg"><path d="m19.8096793 11.0815232c.5518709.3298783 1.2669395.1467287 1.5951193-.4088401.3280309-.5546732.146551-1.27219589-.4068061-1.60207422-4.6188895-2.75351372-11.92772176-3.01234133-16.32440628-1.67208005-.61548536.18777689-.96239261.84051801-.77600809 1.45848011.18638452.61766356.83679849.96634944 1.4518378.77902034 3.8300992-1.16741101 10.44808997-.94739263 14.46026337 1.44549392zm-.1313908 3.5441769c.2804687-.4576502.1368901-1.0577004-.3192615-1.3398135-3.8418413-2.3710937-9.46161897-3.0383137-13.98241141-1.6607358-.51218601.1567295-.80172129.7000585-.64699527 1.2154747.15576643.5143713.69782756.8049926 1.21105398.649308 3.95732837-1.2063695 9.0579343-.6082598 12.4028986 1.4566889.4561516.2815161 1.0533553.1377727 1.3347156-.3209223zm-1.5230326 3.4037172c.2236914-.3671948.1085014-.8470857-.2572819-1.0714328-3.2807552-2.0133026-7.3479226-2.4818492-12.08928491-1.3932507-.41839924.0956796-.67909982.5134757-.58338082.9327645.09527322.4191395.51129418.6819973.92880161.5858699 4.33262432-.9939637 8.01156472-.588706 10.93456252 1.2053246.3653375.2244963.8430409.1089644 1.0665835-.2592755zm-5.7082138-18.0294173c6.874381 0 12.4468937 5.59628864 12.4468937 12.4998507 0 6.9040099-5.5725127 12.5001493-12.4468937 12.5001493-6.87423221 0-12.4470421-5.5961394-12.4470421-12.5001493 0-6.90356206 5.57280989-12.4998507 12.4470421-12.4998507zm21.4168378 11.5396212c2.6183022.6394565 3.6860748 1.6320767 3.6860748 3.4268536 0 2.1236103-1.615779 3.4958146-4.1162161 3.4958146-1.7675323 0-3.4053089-.630799-4.7372004-1.8247794-.0569262-.050452-.0631687-.1376234-.0138228-.1959865l1.1765711-1.406237c.0240784-.0291069.0587098-.0467203.0964622-.0498549.0359691-.0020897.0749107.0092545.1032994.0337342 1.1446155.9954563 2.1679471 1.4198202 3.422253 1.4198202 1.1294547 0 1.8312953-.4907874 1.8312953-1.2802563 0-.7125969-.3470558-1.1109884-2.4035288-1.5866998-2.4161626-.5864669-3.8143444-1.3462319-3.8143444-3.4919336 0-2.00091356 1.6208325-3.39938867 3.9412761-3.39938867 1.5781752 0 2.9283487.46974077 4.1273635 1.43594093.0581149.04686958.0698569.13105572.0267536.19225487l-1.0493422 1.48549729c-.0221462.0313459-.0552912.05194465-.092895.05761675-.0376041.00597067-.0758025-.00313457-.106272-.02597231-1.0075765-.75439141-1.9683341-1.12083995-2.9374152-1.12083995-.999699 0-1.6721105.48242838-1.6721105 1.1996525 0 .75886939.3827277 1.12009359 2.5317984 1.63476349zm11.1582536 2.4054249c0-1.4911694-.9509478-2.5730508-2.2605448-2.5730508-1.3158396 0-2.3084042 1.105764-2.3084042 2.5730508 0 1.4674361.9925646 2.5730509 2.3084042 2.5730509 1.331 0 2.2605448-1.057551 2.2605448-2.5730509zm-1.8150945-4.53396099c2.0138157 0 4.0524527 1.55729429 4.0524527 4.53396099 0 2.9760697-2.038637 4.5329161-4.0524527 4.5329161-1.0835276 0-1.9726446-.4036157-2.7058465-1.2299534v3.4677526c0 .0780663-.0630199.1416535-.1407543.1416535h-1.9241906c-.0777345 0-.140606-.0635872-.140606-.1416535v-10.98629148c0-.07806622.0628715-.14165362.140606-.14165362h1.9241906c.0777344 0 .1407543.0635874.1407543.14165362v.98873938c.7330533-.87843164 1.6220217-1.30712419 2.7058465-1.30712419zm9.2780584 7.12283419c1.3926822 0 2.4035289-1.0747167 2.4035289-2.5564824 0-1.4768398-1.0469643-2.5899179-2.4353362-2.5899179-1.3836157 0-2.3876251 1.0756122-2.3876251 2.5575271 0 1.475795 1.0399782 2.5888732 2.4194324 2.5888732zm0-7.12283419c2.5848599 0 4.6089311 1.99150969 4.6089311 4.53396099 0 2.5509595-2.0380427 4.5497834-4.6407384 4.5497834-2.5756447 0-4.5934735-1.9844943-4.5934735-4.5173926 0-2.560811 2.0318002-4.56635179 4.6252808-4.56635179zm10.1472585.17673119c.0777344 0 .1403085.0635874.1403085.14165362v1.66088508c0 .077917-.0625741.1415044-.1403085.1415044h-2.1175609v3.9948115c0 .6309482.2755639.9123151.8928329.9123151.4005633 0 .7589151-.0864252 1.1296033-.2737543.0429548-.0213451.0951247-.0200016.137039.0064185.0414683.0256738.0668843.0716478.0668843.1204578v1.5816247c0 .0504521-.0273483.0979186-.0711948.1225476-.5396829.3073391-1.1123621.4504854-1.8026093.4504854-1.6975268 0-2.5582548-.8805214-2.5582548-2.6172337v-4.2976726h-.9252346c-.0775859 0-.1401599-.0635874-.1401599-.1415044v-1.66088508c0-.07806622.062574-.14165362.1401599-.14165362h.9252346v-2.17421159c0-.07806623.0633172-.14150436.1412003-.14150436h1.9240418c.0777347 0 .1404573.06343813.1404573.14150436v2.17421159zm7.3776488.00850817h3.2872951c.0584124 0 .1108795.03612242.1313908.09105239l2.2477624 5.89049234 2.0521627-5.88661143c.0196193-.05672115.0734243-.0949333.1333228-.0949333h2.003263c.0466703 0 .0893276.02313625.1157843.0613484.026605.03880923.0315099.08791779.014863.13150354l-3.3384243 8.66341059c-.6924766 1.7882093-1.4778484 2.4530409-2.8987707 2.4530409-.7595098 0-1.3742519-.1580728-2.0551354-.5284024-.0651009-.0352268-.0915573-.1149348-.0604932-.182851l.6521974-1.4369859c.0156062-.0359732.0465217-.0632889.083234-.0764242.037158-.0114934.0777345-.0083588.1120684.0105978.3650404.2006139.7220546.3022641 1.0610843.3022641.4194397 0 .726662-.1385191 1.0390867-.834846l-2.7522197-6.6271209h-1.7966642v6.6289121c0 .0780663-.0633173.1415046-.1410518.1415046h-1.9241906c-.0775859 0-.1403085-.0634383-.1403085-.1415046v-6.6289121h-.9244914c-.0775859 0-.1412006-.0635874-.1412006-.1415044v-1.66939324c0-.07791697.0636147-.14150437.1412006-.14150437h.9244914v-.40898941c0-1.90060662.9393543-2.90576527 2.716845-2.90576527.7303779 0 1.2181883.11702471 1.5994295.23076556.0596014.01835976.0994349.07358825.0994349.13568298v1.62849434c0 .04537691-.0209571.08821632-.0581152.11493497-.0361176.02671864-.0824908.03373417-.1269317.01970314-.3608787-.12090561-.6831129-.20091232-1.0842708-.20091232-.6727085 0-.9726482.3503278-.9726482 1.13591585zm-4.2770357-.00850817c.0775859 0 .1409032.0635874.1409032.14165362v8.43130158c0 .0780663-.0633173.1415046-.1409032.1415046h-1.9243392c-.0777345 0-.1409031-.0634383-.1409031-.1415046v-8.43130158c0-.07806622.0631686-.14165362.1409031-.14165362zm-.9524342-3.8389776c.7620366 0 1.3800486.61990258 1.3800486 1.38548893 0 .76588492-.618012 1.38638455-1.3800486 1.38638455-.762185 0-1.3809402-.62049963-1.3809402-1.38638455 0-.76558635.6187552-1.38548893 1.3809402-1.38548893zm16.9369192 4.6777044h-.3525553v.4515303h.3525553c.1759804 0 .2810631-.0864252.2810631-.225989 0-.146878-.1050827-.2255413-.2810631-.2255413zm.2285961.6440837.3830248.5385525h-.3229774l-.3448264-.4939219h-.2963724v.4939219h-.2703618v-1.4274328h.6339159c.3301118 0 .5474118.1695665.5474118.455262 0 .2340494-.1346607.3770464-.3298145.4336183zm-.3002369-1.36399459c-.6936657 0-1.2186341.55377759-1.2186341 1.23189399 0 .6776686.5212526 1.2241322 1.2114998 1.2241322.6935173 0 1.2189315-.5534791 1.2189315-1.231894 0-.6778179-.5215498-1.22413219-1.2117972-1.22413219zm-.0071343 2.59200769c-.7615907 0-1.3541866-.6142305-1.3541866-1.3601137 0-.7460325.6003249-1.36712918 1.3613209-1.36712918.761442 0 1.3541868.61408118 1.3541868 1.35936738 0 .7458832-.5998791 1.3678755-1.3613211 1.3678755z" fill="#1ed760"/></svg>