<?xml version="1.0" standalone="no"?>
<!DOCTYPE svg PUBLIC "-//W3C//DTD SVG 20010904//EN"
 "http://www.w3.org/TR/2001/REC-SVG-20010904/DTD/svg10.dtd">
<svg version="1.0" xmlns="http://www.w3.org/2000/svg"
 width="192.000000pt" height="192.000000pt" viewBox="0 0 192.000000 192.000000"
 preserveAspectRatio="xMidYMid meet">
<metadata>
Created by potrace 1.12, written by Peter Selinger 2001-2015
</metadata>
<g transform="translate(0.000000,192.000000) scale(0.100000,-0.100000)"
fill="#000000" stroke="none">
<path d="M338 1905 c-161 -44 -291 -178 -327 -336 -15 -63 -14 -1142 0 -1211
35 -167 174 -309 340 -347 59 -14 1159 -14 1218 0 166 38 310 186 341 350 13
70 13 1150 -1 1208 -37 162 -178 303 -340 340 -69 16 -1172 13 -1231 -4z m387
-399 c55 -23 109 -79 137 -140 23 -50 23 -56 23 -411 0 -355 0 -361 -23 -410
-28 -60 -64 -100 -117 -128 -36 -20 -58 -22 -222 -25 l-183 -4 0 565 c0 310 3
567 8 571 4 5 81 6 172 4 125 -4 175 -9 205 -22z m634 -28 c46 -224 211 -1068
211 -1077 0 -9 -99 -18 -100 -8 -1 1 -13 65 -28 142 l-27 140 -132 3 -131 3
-27 -146 -27 -145 -55 0 c-47 0 -54 2 -49 18 3 9 53 260 111 557 58 297 108
546 110 553 3 8 26 12 69 12 l65 0 10 -52z"/>
<path d="M450 954 l0 -486 108 3 c127 5 163 21 202 90 25 44 25 44 28 362 4
348 -2 407 -46 458 -39 47 -78 59 -192 59 l-100 0 0 -486z"/>
<path d="M1281 1400 c-14 -68 -111 -629 -111 -637 0 -10 30 -13 115 -13 l116
0 -7 38 c-4 20 -31 168 -60 327 -29 160 -53 288 -53 285z"/>
</g>
</svg>
